<svg xmlns="http://www.w3.org/2000/svg" width="229.939" height="138.545" viewBox="0 0 229.939 138.545"><g transform="translate(-428.104 -3941.478)"><path d="M0,.826a.7.7,0,0,1-.7-.7.7.7,0,0,1,.7-.7L228.535-.7h0a.7.7,0,0,1,.7.7.7.7,0,0,1-.7.7L0,.826Z" transform="translate(428.806 4076.889)" fill="#d3d3d3"/><g transform="translate(-150.781 3742.555)"><path d="M0-.5H65.994a.5.5,0,0,1,.5.5V57.652a.5.5,0,0,1-.5.5H0a.5.5,0,0,1-.5-.5V0A.5.5,0,0,1,0-.5ZM65.494.5H.5V57.152H65.494Z" transform="translate(601.175 199.422)" fill="#d3d3d3"/><path d="M0-.5H60.56a.5.5,0,0,1,.5.5V53.806a.5.5,0,0,1-.5.5H0a.5.5,0,0,1-.5-.5V0A.5.5,0,0,1,0-.5ZM60.06.5H.5V53.306H60.06Z" transform="translate(603.892 201.345)" fill="#d3d3d3"/><path d="M0,28.381a.5.5,0,0,1-.255-.07.5.5,0,0,1-.175-.685L16.105-.255a.5.5,0,0,1,.685-.175.5.5,0,0,1,.175.685L.43,28.136A.5.5,0,0,1,0,28.381Z" transform="translate(633.409 209.036)" fill="#d3d3d3"/><path d="M0,7.869A.5.5,0,0,1-.26,7.8a.5.5,0,0,1-.167-.687L4.059-.26a.5.5,0,0,1,.687-.167A.5.5,0,0,1,4.913.26L.427,7.629A.5.5,0,0,1,0,7.869Z" transform="translate(646.74 222.56)" fill="#d3d3d3"/><path d="M0-.5H65.994a.5.5,0,0,1,.5.5V57.652a.5.5,0,0,1-.5.5H0a.5.5,0,0,1-.5-.5V0A.5.5,0,0,1,0-.5ZM65.494.5H.5V57.152H65.494Z" transform="translate(668.699 199.422)" fill="#d3d3d3"/><path d="M0-.5H60.56a.5.5,0,0,1,.5.5V53.806a.5.5,0,0,1-.5.5H0a.5.5,0,0,1-.5-.5V0A.5.5,0,0,1,0-.5ZM60.06.5H.5V53.306H60.06Z" transform="translate(671.417 201.345)" fill="#d3d3d3"/><path d="M0,28.381a.5.5,0,0,1-.255-.07.5.5,0,0,1-.175-.685L16.105-.255a.5.5,0,0,1,.685-.175.5.5,0,0,1,.175.685L.43,28.136A.5.5,0,0,1,0,28.381Z" transform="translate(700.934 209.036)" fill="#d3d3d3"/><path d="M0,7.869A.5.5,0,0,1-.26,7.8a.5.5,0,0,1-.167-.687L4.059-.26a.5.5,0,0,1,.687-.167A.5.5,0,0,1,4.913.26L.427,7.629A.5.5,0,0,1,0,7.869Z" transform="translate(714.265 222.56)" fill="#d3d3d3"/><path d="M0-.5H65.994a.5.5,0,0,1,.5.5V57.652a.5.5,0,0,1-.5.5H0a.5.5,0,0,1-.5-.5V0A.5.5,0,0,1,0-.5ZM65.494.5H.5V57.152H65.494Z" transform="translate(737.32 199.422)" fill="#d3d3d3"/><path d="M0-.5H60.56a.5.5,0,0,1,.5.5V53.806a.5.5,0,0,1-.5.5H0a.5.5,0,0,1-.5-.5V0A.5.5,0,0,1,0-.5ZM60.06.5H.5V53.306H60.06Z" transform="translate(740.037 201.345)" fill="#d3d3d3"/><path d="M0,28.381a.5.5,0,0,1-.255-.07.5.5,0,0,1-.175-.685L16.1-.255a.5.5,0,0,1,.685-.175.5.5,0,0,1,.175.685L.43,28.136A.5.5,0,0,1,0,28.381Z" transform="translate(769.555 209.036)" fill="#d3d3d3"/><path d="M0,7.869A.5.5,0,0,1-.26,7.8a.5.5,0,0,1-.167-.687L4.06-.26a.5.5,0,0,1,.687-.167A.5.5,0,0,1,4.914.26L.427,7.629A.5.5,0,0,1,0,7.869Z" transform="translate(782.885 222.56)" fill="#d3d3d3"/><path d="M1525.132,478.67q-1.379-21.143-2.756-42.29c-.064-1.023-.266-2.247-1.2-2.655a1.917,1.917,0,0,0-1.956.435c-1.537,1.349-1.706,3.438-2.015,5.326q-.541,3.332-.77,6.708a71.767,71.767,0,0,0,.357,13.474c1.083,8.951,3.849,17.629,5.087,26.563a39.648,39.648,0,0,0,.741,4.407c.14.551.535,1.228,1.08,1.071a.462.462,0,0,0,.1-.045,1.219,1.219,0,0,0,.493-.722,21.936,21.936,0,0,0,1.058-7.431C1525.341,481.89,1525.236,480.272,1525.132,478.67Z" transform="translate(-763.493 -194.244)" fill="#70678f"/><path d="M1579.612,373.795c-.14-1.279-.447-2.866-1.677-3.571-2.154-1.234-3.353,3.335-3.6,4.719-.444,2.419.232,4.9.419,7.309.323,4.085-.731,8.163-.667,12.26.06,3.633-.225,8.74,0,12.364.122,1.921,1.289,2.426,2.288,4.072a.026.026,0,0,0,.007.014c.279.464.908.908,1.305.538a.98.98,0,0,0,.235-.492,41.374,41.374,0,0,0,1.04-7.778q.607-8.975.886-17.965.04-1.237.067-2.481A67,67,0,0,0,1579.612,373.795Z" transform="translate(-811.377 -141.497)" fill="#70678f"/><path d="M1668.077,518.621a1.947,1.947,0,0,0-1.494-1.323,2.513,2.513,0,0,0-1.3.28c-2.823,1.288-3.937,4.021-4.96,6.75a88.753,88.753,0,0,0-2.887,9.725c-1.645,6.626-3.022,13.416-6.043,19.583a15.975,15.975,0,0,0-1.757,4.482,2.9,2.9,0,0,0,.636,2.43,1.307,1.307,0,0,0,.717.349c1.217.179,1.972-1.258,2.352-2.429a180.232,180.232,0,0,1,10.023-24.578c2.1-4.222,4.4-8.5,4.859-13.193.011-.112.021-.226.028-.337a4.259,4.259,0,0,0-.179-1.739Z" transform="translate(-874.088 -263.657)" fill="#70678f"/><path d="M1462.209,582.856a15.579,15.579,0,0,0-1.16-4.519c-.9-2.216-2.127-4.289-3.093-6.476-1.934-4.393-2.8-9.166-3.741-13.874-.585-2.946-1.27-6.016-3.188-8.336a3.884,3.884,0,0,0-1.677-1.288c-3.353-1.138-1.9,4.479-1.465,6a68.861,68.861,0,0,0,3.473,8.264c3.339,7.6,4.759,16.034,9.016,23.153.187.317.433.66.8.688.419.029.7-.361.838-.788h0a2.273,2.273,0,0,0,.088-.337,9.731,9.731,0,0,0,.108-2.486Z" transform="translate(-706.202 -289.302)" fill="#70678f"/><path d="M1623.156,421.391a3,3,0,0,0-1.118-1.729,2.811,2.811,0,0,0-3.23.387c-1.817,1.494-2.409,4.021-2.994,6.174-.727,2.665-1.336,5.357-1.9,8.059-1.118,5.323-2.063,10.683-3.344,15.969-.916,3.773-2.005,7.5-3.093,11.232a62.768,62.768,0,0,0-1.838,7.407,3.474,3.474,0,0,0,.064,1.874,1.449,1.449,0,0,0,1,.855.959.959,0,0,0,.511-.045,1.7,1.7,0,0,0,.538-.38c2.934-2.718,4.332-6.669,5.538-10.481q2.194-6.951,3.98-14.018c1.556-6.162,2.871-12.393,4.907-18.412a16.891,16.891,0,0,0,1.2-5.22A6.062,6.062,0,0,0,1623.156,421.391Z" transform="translate(-837.539 -182.381)" fill="#70678f"/><path d="M1619.287,732.542a.169.169,0,0,1-.169-.165,40.894,40.894,0,0,1,2.453-12.5c2.537-7.521,8.385-20.544,8.443-20.675a.169.169,0,0,1,.307.14c-.059.131-5.909,13.158-8.432,20.644a40.589,40.589,0,0,0-2.435,12.386.169.169,0,0,1-.163.173Z" transform="translate(-848.802 -414.462)" fill="#547672"/><path d="M1605.246,593.882a.169.169,0,0,1-.166-.14,79.322,79.322,0,0,1-.566-12.534c.1-9.224.54-15.394,2.5-19.645,1.988-4.309,7.673-28.441,7.73-28.684a.168.168,0,0,1,.327.077c-.057.245-5.749,24.408-7.751,28.748-1.936,4.192-2.376,10.33-2.471,19.507a79.482,79.482,0,0,0,.559,12.473.166.166,0,0,1-.134.193h-.006Z" transform="translate(-836.682 -276.477)" fill="#547672"/><path d="M1528.081,758.024a.17.17,0,0,1-.168-.15,51.6,51.6,0,0,0-3.012-11.215c-2.425-6.338-6.9-17.564-6.944-17.684a.168.168,0,0,1,.313-.124h0c.045.113,4.511,11.32,6.944,17.684a52.8,52.8,0,0,1,3.033,11.3.169.169,0,0,1-.148.186Z" transform="translate(-764.885 -439.044)" fill="#547672"/><path d="M1546.564,604.211a.169.169,0,0,1-.162-.122c-.041-.14-4.158-14.435-4.375-19.613-.216-5.152-3.387-36.742-3.42-37.061a.168.168,0,0,1,.334-.034c.032.319,3.214,31.918,3.423,37.079.214,5.137,4.32,19.391,4.362,19.535a.17.17,0,0,1-.116.208A.176.176,0,0,1,1546.564,604.211Z" transform="translate(-782.023 -288.488)" fill="#547672"/><path d="M1585.9,549.646a.169.169,0,0,1-.168-.148c-.013-.12-1.351-11.866-1.794-19.135s1.362-47.81,1.379-48.214a.159.159,0,0,1,.157-.162h.019a.168.168,0,0,1,.161.174v0c-.018.407-1.824,40.929-1.381,48.185s1.779,18.992,1.794,19.109a.17.17,0,0,1-.148.187Z" transform="translate(-819.565 -234.372)" fill="#547672"/><path d="M1570.379,866.468l-.017.482-.014.335-.03.762-.021.524q-.025.629-.048,1.258c0,.117-.01.236-.013.354l-.021.535c0,.11-.01.225-.012.335q-.1,2.534-.189,5.069c0,.113-.01.228-.014.342l-.172,4.634c0,.124-.01.245-.017.369-.02.566-.039,1.135-.063,1.7a3.365,3.365,0,0,1-.014.375c-.014.4-.027.8-.043,1.194-.017.455-.3.808-.633.808H1556.9c-.339,0-.615-.353-.636-.808a2.994,2.994,0,0,0-.012-.333c-.013-.111-.007-.2-.01-.3-.018-.495-.038-.989-.055-1.485,0-.1-.01-.206-.014-.306-.01-.327-.022-.65-.037-.978,0-.114,0-.233-.01-.347q-.112-2.9-.219-5.8c0-.113,0-.225-.01-.339-.044-1.157-.088-2.319-.131-3.476l-.017-.37-.014-.333-.013-.347-.037-1.057-.013-.313-.1-2.5c-.017-.488.279-.894.636-.894h13.533C1570.11,865.573,1570.4,865.98,1570.379,866.468Z" transform="translate(-796.099 -552.529)" fill="#cbd4e6"/><path d="M1570.716,886.133c0,.117-.01.236-.012.354-.724-.048-1.448-.072-2.191-.1-.717-.028-1.432-.1-2.146-.179-.65-.072-1.3-.151-1.94-.216-.316-.034-.629-.06-.946-.081-1.6-.1-3.16-.347-4.761-.349-.192,0-.387,0-.581.01-.14,0-1.023.017-1.986,0l-.013-.313c.77,0,1.537-.024,2.314-.04h.2c1.735,0,3.411.268,5.148.369.192.011.383.024.575.041.673.057,1.341.139,2.01.219.9.1,1.8.2,2.7.216C1569.63,886.074,1570.18,886.1,1570.716,886.133Z" transform="translate(-796.564 -568.83)" fill="#fff"/><path d="M1570.929,893.921c0,.11-.01.225-.012.335-.956-.06-1.9-.14-2.874-.117-1.275.037-2.5.057-3.782,0a17.094,17.094,0,0,0-1.964.054,18.09,18.09,0,0,1-1.948-.05c-.366-.014-.731-.014-1.094-.021-.335,0-.67-.01-1-.036-.6-.048-1.2-.152-1.8-.206l-.013-.347c.921.053,1.84.14,2.761.211.383.024.766.048,1.152.062a17.749,17.749,0,0,0,1.948.05,16.752,16.752,0,0,1,1.964-.054c1.279.057,2.507.04,3.782,0C1569.014,893.774,1569.97,893.86,1570.929,893.921Z" transform="translate(-796.811 -575.728)" fill="#fff"/><path d="M1567.7,920.391a18.253,18.253,0,0,1-2.615.05c-.531,0-1.059.027-1.592.041s-1.064.131-1.592.117a13.9,13.9,0,0,1-2.756-.246,8.593,8.593,0,0,0-1.685-.074c0-.113,0-.225-.01-.34a12.274,12.274,0,0,1,1.6.01,8.766,8.766,0,0,0,1.72.28c.457-.007.918.036,1.372.01.978-.057,1.956-.14,2.935-.14a17.686,17.686,0,0,0,2.524-.036C1567.824,920.035,1567.916,920.361,1567.7,920.391Z" transform="translate(-797.655 -597.608)" fill="#fff"/><path d="M1612.614,927.457c0,.113-.01.228-.014.343-.767.081-1.537.122-2.3.232a28.083,28.083,0,0,1-3.193.216.168.168,0,0,1,0-.336,28.03,28.03,0,0,0,3.4-.25C1611.2,927.556,1611.912,927.529,1612.614,927.457Z" transform="translate(-838.698 -603.865)" fill="#fff"/><path d="M1618.5,873.032l-.014.335c-.636,0-1.288-.074-1.915-.113a17.95,17.95,0,0,0-2.3.039l-.5.031c-.215.014-.215-.323,0-.337.186-.01.364-.024.542-.029a16.821,16.821,0,0,1,2.254-.041C1617.2,872.958,1617.853,873.028,1618.5,873.032Z" transform="translate(-844.238 -558.611)" fill="#fff"/><path d="M1572.447,953.462c0,.124-.01.245-.017.369-.524.041-1.059.1-1.608.12a9.283,9.283,0,0,1-2.408-.306c-.823-.177-1.608-.139-2.43-.239-.559-.072-1.107-.229-1.677-.26a8.154,8.154,0,0,0-1.636.14c-.838.124-1.668.3-2.515.35-.27.017-.838.078-1.413.069,0-.115,0-.233-.01-.347a30.21,30.21,0,0,0,4.332-.468,5.808,5.808,0,0,1,1.817-.027c.479.074.945.211,1.43.245.353.021.707-.029,1.057,0,.777.072,1.521.353,2.292.461a10.45,10.45,0,0,0,2.491-.077C1572.252,953.479,1572.35,953.467,1572.447,953.462Z" transform="translate(-798.716 -624.888)" fill="#fff"/><path d="M1572.977,968.8a3.336,3.336,0,0,1-.014.375,8.475,8.475,0,0,1-2.12.838,4.911,4.911,0,0,1-1.84-.14c-.791-.124-1.625-.28-2.422-.344s-1.6-.036-2.409-.1a6.054,6.054,0,0,0-2.215-.012,19.1,19.1,0,0,1-2.187.581c-.091.014-.192.024-.292.031,0-.1-.007-.2-.01-.3a14.733,14.733,0,0,0,2.2-.575c1.207-.37,2.388-.014,3.62.031,1.572.057,3.075.313,4.634.5A5.166,5.166,0,0,0,1572.977,968.8Z" transform="translate(-799.326 -638.155)" fill="#fff"/><path d="M1563.19,961.8a14.5,14.5,0,0,0-2.479.256,9.59,9.59,0,0,1-1.633.112c0-.1-.01-.206-.014-.306a4.114,4.114,0,0,0,.643.012c.434-.034.848-.148,1.276-.218a13.763,13.763,0,0,1,2.207-.192.168.168,0,1,1,0,.335Z" transform="translate(-798.992 -632.07)" fill="#fff"/><path d="M1186.2,927.3c1.43,1.03-1.258,6.055-3.745,8.623s-8.8,2.427-10.062,2.218-1.038-2.057.419-4.032a11.571,11.571,0,0,0,5.244-5.756S1184.775,926.269,1186.2,927.3Z" transform="translate(-477.589 -603.498)" fill="#f1b6b6" fill-rule="evenodd"/><path d="M1177.392,934.115c2.991-.763,5.156-4.8,6.568-6.192,2.226-2.186-1.471-5.659,1.876-3.244,1.43,1.03-1.258,6.056-3.745,8.623s-8.8,2.427-10.062,2.218-1.206-1.487.254-3.462C1172.717,931.809,1175.906,934.5,1177.392,934.115Z" transform="translate(-477.223 -600.881)" fill="#414141" fill-rule="evenodd"/><path d="M1338.034,964.871a19.361,19.361,0,0,0,1.839,2.819c.57.526,1.308,1.719.664,2.236-2.025,2.587-7.842,2.629-9.235,2.1-1.454-.549,1.317-6.84,1.317-6.84Z" transform="translate(-609.725 -634.898)" fill="#f1b6b6" fill-rule="evenodd"/><path d="M1338.382,984.44s.948-2.216,1.677-1.138c.39.573.77.9.1,1.829-1.59,2.215-7.879,2.7-9.159,1.94-.889-.527-.261-2.2-.261-2.2Z" transform="translate(-609.431 -649.94)" fill="#414141" fill-rule="evenodd"/><path d="M1180.391,947.629c-1.029-.714-6.893-.864-7.565-.122s-1.444,1.694-1.191,2.1c.568,1.188,5.088.978,6.771.482s6.656-7.347,6.656-7.347S1180.959,947.387,1180.391,947.629Z" transform="translate(-477.599 -616.548)" fill="#606060" fill-rule="evenodd"/><path d="M1340.422,981.558c-.891-.644-6.125.229-7.106.657s-1.923.943-2.018,1.526c-.112.671-.171,1.631,4.226,1.092,5.361-.66,5.336-2.643,5.336-2.643a3.39,3.39,0,0,0-.437-.632Z" transform="translate(-610.045 -648.549)" fill="#606060" fill-rule="evenodd"/><path d="M1228.648,540.47c6.549,6.1,4.91,15.932,4.972,17.645.08,2.236.964,27.347,1.322,33.923.354,6.472-.8,18.07-2.5,20.264-2.055,2.664-13.043,1.244-13.677-.636,1.15-3.1,2.682-22.36,2.655-34.08,0-2.985-.382-18.4-.382-18.4-.235.165,1.456.216,1.245.411.053,1.622-2.169,9.991-2.479,11.04-.464,1.581-1.37,11.493-2.108,14.732-1.365,6-3,15.093-4.138,22.585-7.816,5.26-13.736,1.159-13.913.717s.279-4.415,1.786-9.52c1.552-5.267,3.375-27.112,7.35-38.447s3.455-17.874,3.455-17.874S1227.385,538.98,1228.648,540.47Z" transform="translate(-500.848 -282.596)" fill="#606060" fill-rule="evenodd"/><path d="M1320.538,937.268c3.634.077,9.1-4.431,7.818-2.646-6.707,5.615-14.609,2.017-14.609,2.017A40.243,40.243,0,0,0,1320.538,937.268Z" transform="translate(-595.513 -609.462)" fill="#414141" fill-rule="evenodd"/><path d="M1210.886,914.581c-2.376,1.118-7.518-.176-7.808.261-.1.14.419.337,2.1.625a12.775,12.775,0,0,0,10.678-3.373S1214.005,913.12,1210.886,914.581Z" transform="translate(-503.71 -591.122)" fill="#414141" fill-rule="evenodd"/><path d="M1333.747,642.23s-2.186,1.206-2.946,1.129-.1.514.906.091,1.351-.243,2.088-1.022S1333.747,642.23,1333.747,642.23Z" transform="translate(-609.386 -367.113)" fill="#f1b6b6" fill-rule="evenodd"/><path d="M1329.489,652.533a8.753,8.753,0,0,0-2.218,2.151c-.591,1.044.559-.211,1.154-.819S1329.81,652.783,1329.489,652.533Z" transform="translate(-606.596 -375.831)" fill="#f1b6b6" fill-rule="evenodd"/><path d="M938.7,712.644h124.959a5.713,5.713,0,0,1-5.713,5.713H944.407A5.713,5.713,0,0,1,938.7,712.644Z" transform="translate(-284.431 -425.69)" fill="#414141"/><path d="M977.262,765.275c-.872,0-1.584-.011-2.176-.032-1.515-.054-2.571-.162-3.418-.249a18.279,18.279,0,0,0-1.886-.133,9.878,9.878,0,0,0-1.795.173.5.5,0,0,1-.509-.222c-.8-1.248-.511-1.816-.126-2.072.308-.206.348-1.1.083-1.88a.946.946,0,0,1,.1-.9c.324-.453,1.059-.646,2.457-.646.852,0,1.953.071,3.369.217.709.073,1.388.146,2.044.217a69.964,69.964,0,0,0,7.241.547c.556,0,1.075-.016,1.587-.049.883-.057,1.769-.125,2.626-.191,1.6-.123,2.981-.229,3.864-.229a3.534,3.534,0,0,1,.895.077c.318.089.709.359.761,1.141a6.2,6.2,0,0,1-.086,1.2,4.71,4.71,0,0,0-.054.492,2.364,2.364,0,0,0,.088.412,2.484,2.484,0,0,1,.025,1.68.5.5,0,0,1-.456.294c-.308,0-.692,0-1.174-.042-.233-.02-.644-.03-1.221-.03-1.221,0-3.083.045-5.054.093C982.08,765.21,979.393,765.275,977.262,765.275Zm-7.48-1.414a18.985,18.985,0,0,1,1.989.138c.833.086,1.87.192,3.352.245.572.021,1.292.032,2.14.032,2.119,0,4.8-.065,7.164-.123,1.977-.048,3.845-.094,5.078-.094.614,0,1.042.011,1.308.034s.482.032.685.036a3.116,3.116,0,0,0-.133-.715,2.7,2.7,0,0,1-.121-.669,5.018,5.018,0,0,1,.063-.629,3.383,3.383,0,0,0,.03-1.248,3.13,3.13,0,0,0-.61-.037c-.844,0-2.274.11-3.788.226-.86.066-1.749.134-2.638.192-.533.034-1.073.051-1.651.051a70.636,70.636,0,0,1-7.348-.553c-.655-.071-1.333-.144-2.04-.217-1.381-.143-2.449-.212-3.266-.212a3.516,3.516,0,0,0-1.618.21l0,.009c.3.868.422,2.359-.412,2.991a1.462,1.462,0,0,0,.183.465A10.528,10.528,0,0,1,969.782,763.861Z" transform="translate(-308.294 -464.819)" fill="#d3d3d3"/><path d="M962.432,785.953a18.982,18.982,0,0,1,1.989.138c.833.086,1.869.192,3.351.245.579.021,1.277.031,2.135.031,2.118,0,4.8-.065,7.164-.123,1.979-.048,3.847-.094,5.082-.094.615,0,1.043.011,1.309.034.439.039.8.039,1.087.039h.005a1.779,1.779,0,0,1,1.227.307,1.884,1.884,0,0,1,.441,1.414c.032.978.017,1.632.005,2.158-.007.329-.014.614-.007.9a4.7,4.7,0,0,1-.135,1.562.5.5,0,0,1-.546.371,30.283,30.283,0,0,0-3.437-.149c-1.163,0-2.1.032-2.112.032H958.631a.5.5,0,0,1-.473-.662,4.111,4.111,0,0,0,.211-2.309,3.345,3.345,0,0,1,.02-2.616,2.221,2.221,0,0,1,1.549-.993c.16-.033.346-.07.524-.1A10.973,10.973,0,0,1,962.432,785.953Zm7.475,1.414c-.87,0-1.58-.01-2.171-.032-1.515-.054-2.57-.162-3.417-.249a18.279,18.279,0,0,0-1.887-.133,9.882,9.882,0,0,0-1.8.173c-.168.029-.344.065-.5.1a1.261,1.261,0,0,0-.891.522,2.383,2.383,0,0,0,.073,1.811,4.335,4.335,0,0,1-.026,2.267h20.666c.1,0,1.018-.033,2.138-.033,1.271,0,2.31.036,3.1.107a3.7,3.7,0,0,0,.022-.823c0-.01,0-.02,0-.03-.008-.317,0-.617.007-.964.012-.513.026-1.152,0-2.1-.02-.591-.1-.693-.109-.7a2.067,2.067,0,0,0-.568-.052c-.308,0-.691,0-1.172-.043-.233-.02-.645-.03-1.222-.03-1.222,0-3.085.045-5.057.093C974.725,787.3,972.037,787.367,969.907,787.367Z" transform="translate(-300.945 -486.91)" fill="#d3d3d3"/><path d="M872.457,820.172h0a30.651,30.651,0,0,1,3.559.157,2.786,2.786,0,0,1,1.375.4c.357.28.7.984.764,4.165.035,1.623-.023,3.2-.028,3.337v17.523a.5.5,0,0,1-.5.5h-51.2a.5.5,0,0,1-.5-.5V828.021c0-.1-.032-1.727-.014-3.375.011-1,.037-1.817.078-2.426.074-1.11.181-1.408.364-1.589.2-.2.459-.445,5.65-.445a.5.5,0,0,1,.134.018h38.173C870.416,820.2,871.336,820.172,872.457,820.172Zm4.3,1.336a2.744,2.744,0,0,0-.868-.187,30.186,30.186,0,0,0-3.435-.149h0c-1.165,0-2.105.032-2.115.033H832.081a.674.674,0,0,1-.152-.018,32.327,32.327,0,0,0-4.839.189,51.418,51.418,0,0,0-.159,6.631s0,.007,0,.01v17.239h50.2V828.223c0-.007,0-.013,0-.02s.06-1.542.03-3.155C877.106,822.156,876.818,821.591,876.761,821.507Z" transform="translate(-191.296 -515.293)" fill="#d3d3d3"/><path d="M861.71,821.273H859.3a.66.66,0,0,1-.3-.076.5.5,0,0,1,.233-.942c1.366,0,2.478.018,2.489.018a.5.5,0,0,1-.008,1Z" transform="translate(-218.516 -515.362)" fill="#fff"/><path d="M1111.945,967.239h2.517a.5.5,0,0,1,.5.5v2.335a.98.98,0,0,1-.979.979h-1.558a.98.98,0,0,1-.979-.979v-2.335A.5.5,0,0,1,1111.945,967.239Zm2.017,1h-1.517v1.814h1.517Z" transform="translate(-428.13 -637.277)" fill="#d3d3d3"/><path d="M826.543,967.239h2.518a.5.5,0,0,1,.5.5v2.335a.98.98,0,0,1-.979.979h-1.558a.981.981,0,0,1-.981-.976v-2.338A.5.5,0,0,1,826.543,967.239Zm2.018,1h-1.518v1.814h1.518Z" transform="translate(-191.405 -637.277)" fill="#d3d3d3"/><path d="M829.482,881.448h49.306a.7.7,0,0,1,.7.7v.018a.7.7,0,0,1-.7.689H829.5a.706.706,0,0,1-.024-1.411Z" transform="translate(-193.685 -566.118)" fill="#d3d3d3"/><path d="M938.54,902.994h11.626a1.455,1.455,0,0,1,1.39,1.39,1.447,1.447,0,0,1-1.39,1.5H938.587c-.035,0-.07,0-.1,0a1.448,1.448,0,0,1,.057-2.894Zm11.588,1.411H938.552a.038.038,0,0,0-.028.012.036.036,0,0,0-.01.027.038.038,0,0,0,.037.036h11.577a.038.038,0,0,0,0-.075Z" transform="translate(-283.514 -583.989)" fill="#d3d3d3"/><path d="M938.541,830.363h11.626a1.448,1.448,0,0,1,0,2.893h-11.58c-.034,0-.069,0-.1,0a1.448,1.448,0,0,1,.056-2.894Zm11.607,1.486a.038.038,0,1,0,0-.076H938.579a.038.038,0,0,0,0,.076Z" transform="translate(-283.516 -523.746)" fill="#d3d3d3"/><path d="M979.465,774.951h-.007a28.945,28.945,0,0,1-6.488-1.012.705.705,0,1,1,.382-1.357,27.461,27.461,0,0,0,6.1.956h.131a30.546,30.546,0,0,0,4.279-.453l.067-.01c1.376-.21,2.8-.428,4.464-.524.595-.03,1.2-.046,1.787-.046a35.253,35.253,0,0,1,4.976.354l.023,0a.7.7,0,0,1-.133,1.4.713.713,0,0,1-.088-.006h-.008a33.776,33.776,0,0,0-4.769-.339c-.568,0-1.144.015-1.712.043-1.628.1-3.026.311-4.378.519a31.968,31.968,0,0,1-4.48.472Z" transform="translate(-312.82 -475.754)" fill="#d3d3d3"/><path d="M986.807,799.83c-.443,0-.994,0-1.64-.01h-.488c-2.039-.015-4.633-.2-7.14-.381l-.047,0c-2.408-.173-4.9-.352-6.673-.352-.339,0-.647.007-.914.02-.751.044-1.519.067-2.277.067-1.08,0-2.174-.046-3.251-.137l-.016,0a.7.7,0,0,1,.079-1.4.717.717,0,0,1,.073,0c1.032.086,2.08.13,3.115.13.73,0,1.47-.022,2.2-.065.3-.016.651-.025,1.033-.025,1.762,0,4.142.171,6.662.353l.071.005c2.363.171,5.042.365,7.1.38h.535c.6,0,1.114.009,1.566.009.593,0,1.038-.008,1.334-.025a1.606,1.606,0,0,1,.038-.946c-.278-.02-.755-.037-1.568-.037-1.385,0-3.242.049-4.88.092-1.747.047-3.922.106-5.64.106-.33,0-.64,0-.923-.006-1.3-.02-2.9-.03-4.763-.03s-3.987.01-6.006.029h-.123a.705.705,0,0,1-.681-.729.708.708,0,0,1,.68-.681h.116c2.025-.019,4.162-.029,6.019-.029s3.476.01,4.783.03c.28,0,.59.006.92.006,1.671,0,3.75-.054,5.584-.1,2.19-.057,3.778-.093,4.922-.093,1.846,0,2.346.094,2.624.268a1.015,1.015,0,0,1,.555.9,1.266,1.266,0,0,1-.21.629l-.02.034-.026.032a.191.191,0,0,0-.029.2l0,.006a1.221,1.221,0,0,1,.016,1.215C989.172,799.784,988.536,799.83,986.807,799.83Z" transform="translate(-305.481 -495.246)" fill="#d3d3d3"/><path d="M869.281,753.975a.663.663,0,0,1,.661.654s0,0,0,.005v2.232a.5.5,0,0,1-.5.5h-2.253a.5.5,0,0,1-.5-.5v-2.229a.668.668,0,0,1,.658-.662Zm-.339,2.391v-1.391h-1.253v1.391Z" transform="translate(-225.118 -460.386)" fill="#d3d3d3"/><path d="M858.793,767.985h4.83a.685.685,0,0,1,.674.677v8.573a.682.682,0,0,1-.676.683h-4.831a.662.662,0,0,1-.29-.068.676.676,0,0,1-.388-.618v-8.567A.681.681,0,0,1,858.793,767.985Zm4.5,1h-4.184v7.933H863.3Z" transform="translate(-218.005 -472.007)" fill="#d3d3d3"/><path d="M0-.5H.742a.5.5,0,0,1,.5.5V.678a.5.5,0,0,1-.5.5H0a.5.5,0,0,1-.5-.5V0A.5.5,0,0,1,0-.5Z" transform="translate(642.827 293.411)" fill="#d3d3d3"/><path d="M854.187,745.64h3.6a.5.5,0,0,1,.5.5v.739a.5.5,0,0,1-.5.5h-3.6a.64.64,0,0,1-.64-.64v-.46A.64.64,0,0,1,854.187,745.64Z" transform="translate(-214.218 -453.473)" fill="#d3d3d3"/><path d="M0-.5H2.837a.5.5,0,0,1,.5.5V1.894a.5.5,0,0,1-.5.5H0a.5.5,0,0,1-.5-.5V0A.5.5,0,0,1,0-.5ZM2.337.5H.5v.894H2.337Z" transform="translate(641.759 298.287)" fill="#d3d3d3"/><path d="M907.584,746.968H909.3a.774.774,0,0,1,.77.767v.929a.5.5,0,0,1-.5.5h-2.253a.5.5,0,0,1-.5-.5v-.926a.772.772,0,0,1,.766-.77Zm1.484,1.2v-.2h-1.253v.2Z" transform="translate(-258.402 -454.574)" fill="#d3d3d3"/><path d="M896.856,753.966h2.273a2.4,2.4,0,0,1,2.286,2.3l.343,9.5a.5.5,0,0,1-.5.518H894.7a.5.5,0,0,1-.5-.518l.345-9.5a2.387,2.387,0,0,1,2.286-2.3Zm2.242,1h-2.232a1.384,1.384,0,0,0-1.316,1.333l-.326,8.987h5.516l-.324-8.985A1.392,1.392,0,0,0,899.1,754.966Zm-1.117,5.093c1.39,0,2.479.765,2.479,1.741s-1.088,1.74-2.478,1.74h0c-1.391,0-2.48-.764-2.48-1.74S896.59,760.059,897.981,760.059Zm0,2.481c.832,0,1.478-.4,1.478-.74s-.646-.741-1.479-.741-1.48.4-1.48.741.647.74,1.48.74Z" transform="translate(-247.941 -460.379)" fill="#d3d3d3"/><path d="M1.979-.5c1.39,0,2.479.765,2.479,1.741S3.369,2.982,1.979,2.982-.5,2.217-.5,1.241.589-.5,1.979-.5Zm0,2.482c.846,0,1.479-.391,1.479-.741S2.825.5,1.979.5.5.891.5,1.241,1.133,1.982,1.979,1.982Z" transform="translate(648.062 300.18)" fill="#fff"/><path d="M1.979-.5c1.39,0,2.479.765,2.479,1.741S3.369,2.982,1.979,2.982-.5,2.217-.5,1.241.589-.5,1.979-.5Zm0,2.482c.846,0,1.479-.391,1.479-.741S2.825.5,1.979.5.5.891.5,1.241,1.133,1.982,1.979,1.982Z" transform="translate(648.062 300.18)" fill="#d3d3d3"/><path d="M710.58,605.253h-9.286a.5.5,0,0,1-.323-.119,1.592,1.592,0,0,1-.472-.684,3.324,3.324,0,0,1,.248-2.433,1.746,1.746,0,0,1,1.552-1.177,1.613,1.613,0,0,1,.309.031,1.694,1.694,0,0,1,.746.35,10.581,10.581,0,0,1,1.69-2.036l.011-.01a4.895,4.895,0,0,1,2.861-1.3,2.065,2.065,0,0,1,1.59.709,3.091,3.091,0,0,1,.452,2.715,1.068,1.068,0,0,1,.445.479,1.111,1.111,0,0,1,.113.464,1.54,1.54,0,0,0,.243.056,1.089,1.089,0,0,1,1.008.836,2.02,2.02,0,0,1-.858,1.989A.5.5,0,0,1,710.58,605.253Zm-9.07-1h8.873c.265-.266.486-.6.418-.857a.29.29,0,0,0-.023-.063,1.247,1.247,0,0,0-.2-.045,2.068,2.068,0,0,1-.526-.149.789.789,0,0,1-.54-.817c0-.067,0-.074-.014-.105l-.005-.011a.066.066,0,0,0-.053-.038l-.021,0a.5.5,0,0,0-.081-.006.5.5,0,0,1-.476-.662,2.406,2.406,0,0,0-.108-2.245,1.064,1.064,0,0,0-.841-.372,3.867,3.867,0,0,0-2.193,1.041,9.578,9.578,0,0,0-1.543,1.867l-.01.016a1.22,1.22,0,0,1-.752.606.5.5,0,0,1-.538-.231.7.7,0,0,0-.463-.325.608.608,0,0,0-.117-.012c-.087,0-.354,0-.653.614a2.4,2.4,0,0,0-.208,1.654l0,.008A.591.591,0,0,0,701.51,604.253Z" transform="translate(-87.16 -330.914)" fill="#d3d3d3"/><path d="M699.8,635.252h10.811a.5.5,0,0,1,.5.5v2.812a2.459,2.459,0,0,1-2.456,2.456h-6.9a2.459,2.459,0,0,1-2.456-2.456v-2.812A.5.5,0,0,1,699.8,635.252Zm10.311,1H700.3v2.312a1.458,1.458,0,0,0,1.456,1.456h6.9a1.458,1.458,0,0,0,1.456-1.456Z" transform="translate(-86.28 -361.912)" fill="#d3d3d3"/><path d="M716.393,622.431h0a.67.67,0,0,1-.6-.961l.016-.033.866-1.786a.67.67,0,0,1,.893-.312.669.669,0,0,1,.313.894L717,622.051A.672.672,0,0,1,716.393,622.431Z" transform="translate(-99.899 -348.659)" fill="#d3d3d3"/><path d="M729.363,612.77h-.011a.672.672,0,0,1-.547-1.026l0-.008,1.44-2.234.025-.028a.669.669,0,0,1,1.107.728l-.014.03-1.436,2.231a.667.667,0,0,1-.559.307Z" transform="translate(-110.668 -340.342)" fill="#d3d3d3"/><path d="M739.331,615.749h0a.672.672,0,0,1-.6-.971l0-.006.454-.884a.664.664,0,0,1,.6-.367.672.672,0,0,1,.3.069l.018.009a.675.675,0,0,1,.287.892l0,.007-.455.886a.673.673,0,0,1-.593.365Z" transform="translate(-118.926 -343.887)" fill="#d3d3d3"/><path d="M0-.5H33.725a.5.5,0,0,1,.5.5V2.929a.5.5,0,0,1-.5.5H0a.5.5,0,0,1-.5-.5V0A.5.5,0,0,1,0-.5ZM33.225.5H.5V2.429H33.225Z" transform="translate(595.781 278.612)" fill="#d3d3d3"/><path d="M604.466,680.408h30.762a.5.5,0,0,1,.5.5v12.521a.5.5,0,0,1-1,0,.308.308,0,0,0-.308-.308h-1.054a.307.307,0,0,0-.306.307v.56a.5.5,0,0,1-.5.5H607.133a.5.5,0,0,1-.5-.5v-.559a.307.307,0,0,0-.306-.308h-1.053a.31.31,0,0,0-.308.309.5.5,0,0,1-.5.5h0a.5.5,0,0,1-.5-.5V680.908A.5.5,0,0,1,604.466,680.408Zm30.262,1H604.966v10.75a1.306,1.306,0,0,1,.307-.037h1.055a1.308,1.308,0,0,1,1.305,1.308v.059H632.06v-.059a1.308,1.308,0,0,1,1.3-1.308h1.056a1.3,1.3,0,0,1,.308.037Zm-15.047.729a1.547,1.547,0,0,1,0,3.094h0a1.547,1.547,0,0,1,0-3.094Z" transform="translate(-7.204 -399.366)" fill="#d3d3d3"/><path d="M688.591,690.591h0a1.546,1.546,0,1,1-1.549,1.541A1.535,1.535,0,0,1,688.6,690.591Z" transform="translate(-76.114 -407.813)" fill="#fff"/><path d="M769.995,749.083h1.056a1.309,1.309,0,0,1,1.308,1.308v38.194a1.308,1.308,0,0,1-1.306,1.306H770a1.308,1.308,0,0,1-1.306-1.306V750.391A1.308,1.308,0,0,1,769.995,749.083Zm1.056,39.808a.307.307,0,0,0,.308-.306V750.391a.308.308,0,0,0-.308-.308H770v0a.307.307,0,0,0-.306.307v38.195a.307.307,0,0,0,.306.306Z" transform="translate(-143.834 -456.329)" fill="#d3d3d3"/><path d="M605.28,749.083h1.055a1.308,1.308,0,0,1,1.305,1.308v38.194a1.3,1.3,0,0,1-1.3,1.306h-1.056a1.31,1.31,0,0,1-1.308-1.305v-38.2A1.312,1.312,0,0,1,605.28,749.083Zm1.055,39.808a.3.3,0,0,0,.305-.305V750.391a.307.307,0,0,0-.306-.308h-1.052a.31.31,0,0,0-.309.309v38.193a.308.308,0,0,0,.308.306Z" transform="translate(-7.21 -456.329)" fill="#d3d3d3"/><path d="M0-.5H25.426a.5.5,0,0,1,.5.5V34.046a.5.5,0,0,1-.5.5H0a.5.5,0,0,1-.5-.5V0A.5.5,0,0,1,0-.5ZM24.926.5H.5V33.546H24.926Z" transform="translate(599.93 294.617)" fill="#d3d3d3"/><path d="M-.5-.5H25.926V.84H-.5Z" transform="translate(599.93 311.474)" fill="#d3d3d3"/><path d="M-.5-.5H25.926V.841H-.5Z" transform="translate(599.93 326.285)" fill="#d3d3d3"/><path d="M688.591,690.578a1.545,1.545,0,1,1-1.545,1.545A1.547,1.547,0,0,1,688.591,690.578Zm0,2.091a.545.545,0,1,0-.545-.545A.546.546,0,0,0,688.591,692.669Z" transform="translate(-76.114 -407.802)" fill="#d3d3d3"/><path d="M1.045-.5A1.545,1.545,0,1,1-.5,1.045,1.547,1.547,0,0,1,1.045-.5Zm0,2.091A.545.545,0,1,0,.5,1.045.546.546,0,0,0,1.045,1.591Z" transform="translate(611.432 296.183)" fill="#d3d3d3"/><path d="M1.045-.5A1.545,1.545,0,1,1-.5,1.045,1.547,1.547,0,0,1,1.045-.5Zm0,2.091A.545.545,0,1,0,.5,1.045.546.546,0,0,0,1.045,1.591Z" transform="translate(611.432 313.022)" fill="#d3d3d3"/><path d="M0-.5H5.506a.5.5,0,0,1,.5.5V6.927a.5.5,0,0,1-.5.5H0a.5.5,0,0,1-.5-.5V0A.5.5,0,0,1,0-.5ZM5.006.5H.5V6.427H5.006Z" transform="translate(598.238 271.685)" fill="#d3d3d3"/><path d="M623.822,605.221h0a.957.957,0,0,1,.831.488,1.453,1.453,0,0,1,.034,1.349,2.657,2.657,0,0,1-.487.6,2.964,2.964,0,0,0-.22.235,1.2,1.2,0,0,1-.887.478.826.826,0,0,1-.755-.5,1.287,1.287,0,0,1,.153-1.214c.053-.095.106-.186.159-.277.1-.168.191-.327.273-.5a1,1,0,0,1,.847-.662Zm-.364,1.767.038-.038a1.871,1.871,0,0,0,.316-.37.5.5,0,0,0,.018-.264c-.1.207-.208.392-.312.571Z" transform="translate(-22.369 -337.003)" fill="#d3d3d3"/><path d="M0-.5H3.414a.5.5,0,0,1,.5.5V2.147a.5.5,0,0,1-.5.5H0a.5.5,0,0,1-.5-.5V0A.5.5,0,0,1,0-.5ZM2.914.5H.5V1.647H2.914Z" transform="translate(604.849 276.466)" fill="#d3d3d3"/><path d="M657.2,637.321a.666.666,0,0,1,.472.195.5.5,0,0,1,.088.117,1.326,1.326,0,0,1,.08,1.078l0,.008a1.532,1.532,0,0,1-.3.487,3.173,3.173,0,0,1-.2.3.5.5,0,0,1-.05.058.718.718,0,0,1-.516.226.744.744,0,0,1-.547-.256,1.192,1.192,0,0,1,.124-1.735,3.959,3.959,0,0,1,.487-.378l.024-.015A.672.672,0,0,1,657.2,637.321Z" transform="translate(-50.29 -363.628)" fill="#d3d3d3"/><path d="M1025.244,571.687a11.6,11.6,0,0,0,2.964,2.015l1.579.559a38.6,38.6,0,0,0,6.3,1.829,5.21,5.21,0,0,0,3.7-1.154s2.584,1.677,3.126,3.407c.636,2.031,1.054,1.835.978,2.138-.28-.133,4.97,3.251,3.525,3.214-5.105,0-6.156-.254-9.307-2.148a2.059,2.059,0,0,0-.96-1.537,18.928,18.928,0,0,0-4.786-1.078c-.126.968.232,4.156-5.013,4.357-3.322-.2-6.447.094-6.64-.419l-1.186-1.05a35.318,35.318,0,0,1,1.389-7.547c.149-.411,2.531-.886,3.066-.819-1.956-.686-1.413-1.934-1.17-2.11C1023.259,570.986,1024.058,571,1025.244,571.687Z" transform="translate(-351.477 -308.296)" fill="#ecc298" fill-rule="evenodd"/><path d="M1077.042,603.1a12.951,12.951,0,0,1,4.2,2.539c-2.756-1.072-2.682-.854-3.935-.612-1.632.451-.347,1.8-1.708,1.617a7.073,7.073,0,0,0-.794-2.623,7.256,7.256,0,0,0-1.185-1.388c-.51-.427-1.214-.608-1.161-.688.152-.229,2.655.686,3.122.806C1076.18,602.9,1077.042,603.1,1077.042,603.1Z" transform="translate(-395.376 -333.838)" fill="#c37e57" fill-rule="evenodd" opacity="0.5" style="isolation:isolate"/><path d="M1023.765,567.915l1.583,1.991.393.5h.007a6.594,6.594,0,0,1,2.5,5.626l-.052.266c-.306,1.143,0,3.353-7.3,3.674s-6.568-3.506-6.568-3.506,4.922-9.848,5.06-9.978A42.241,42.241,0,0,1,1023.765,567.915Z" transform="translate(-347.152 -304.451)" fill="#ecc298" fill-rule="evenodd"/><path d="M1078.053,585.384l.559.7A1.7,1.7,0,0,1,1078.053,585.384Z" transform="translate(-400.019 -320.134)" fill="#c37e57" fill-rule="evenodd"/><path d="M975.413,557.821a11,11,0,0,0,6.88-7.448l2.3-1.523s.759.38.2.978a5.765,5.765,0,0,1,1.842,1.027l4.6,1.592s1.069-5.942-2.347-8.449-9-.1-11.994,1.5-4.472,3.027-6.624,3.889-3.571,2-2.968,5.146,1.817,4.612,4.332,4.458a5.308,5.308,0,0,0,4.053,3.321c3.009.386,4.819.061,6.722-1.936C982.417,560.378,975.734,560.932,975.413,557.821Z" transform="translate(-308.044 -284.906)" fill="#75432a" fill-rule="evenodd"/><path d="M1014.828,544c3.418,2.506,2.347,8.448,2.347,8.448l-4.594-1.592a5.785,5.785,0,0,0-1.842-1.026c.559-.6-.2-.978-.2-.978l-2.3,1.522a11,11,0,0,1-6.879,7.446c.32,3.112,7.006,2.559,7.006,2.559a5.924,5.924,0,0,1-4.125,2.056c.14-.06,2.515-1.11,2.182-1.444s-4.422.363-5.311-2.075c0,0-.148-.671-1.245-.8a2.45,2.45,0,0,1-1.421-.477s4.212-.316,6.367-3.062,2.2-4.4,3.028-4.991,3.764-1.164,3.431-2.9c-.309-1.613-3.153-2.733-5.59-2.515C1008.638,542.963,1012.321,542.157,1014.828,544Z" transform="translate(-333.987 -284.907)" fill="#75432a" fill-rule="evenodd"/><path d="M1047.761,622.857a2.047,2.047,0,0,1,1.677,1.078c.494,1.035.534-.822.356-1.019s.219.607-.266.511a.383.383,0,0,1-.273-.21A1.423,1.423,0,0,0,1047.761,622.857Z" transform="translate(-374.893 -351.151)" fill="#c37e57"/><path d="M1058.352,613.346a2.91,2.91,0,0,0-.851-2.831s-.19-.082-.363.239-.366-.318.131-.559.355-.361.328.008,1.455.859.9,3.142C1058.5,613.351,1058.387,613.674,1058.352,613.346Z" transform="translate(-382.516 -340.527)" fill="#c37e57"/><path d="M1037.649,626.937s-.952-.14-.91-1.583l.534.015s-.385,1.174.377,1.506Z" transform="translate(-365.75 -353.287)" fill="#3c3427"/><path d="M1037.976,608.179s-.958.091-1,1.529l.535.015s-.318-1.195.463-1.485Z" transform="translate(-365.948 -339.042)" fill="#3c3427"/><path d="M1014.828,544c3.418,2.506,2.347,8.448,2.347,8.448L1013,551.19a10.358,10.358,0,0,0-2.256-1.361c.559-.6-.2-.978-.2-.978l-2.3,1.523a11,11,0,0,1-6.879,7.446c.32,3.112,7.006,2.559,7.006,2.559a5.923,5.923,0,0,1-4.125,2.055c.14-.06,2.515-1.11,2.182-1.444s-4.422.364-5.311-2.075c0,0-.148-.671-1.245-.8a2.45,2.45,0,0,1-1.421-.477s4.212-.316,6.367-3.062,2.2-4.4,3.028-4.991,3.764-1.164,3.431-2.9c-.309-1.613-3.153-2.734-5.59-2.515C1008.638,542.963,1012.321,542.157,1014.828,544Z" transform="translate(-333.987 -284.907)" fill="#58311d"/><path d="M1138.278,588.707s89.057,2.323,88.882-.072-5.413-.827-7.5-2.655-3.3-3.987-7.643-2.376-6.755.292-6.755.292c-10.595-5.13-16.057-3.4-18.664-3.044s-14.186-9.895-26.2-5.146c-8.321,3.287-7.785,1.81-15.294-.27-7.035-1.949-12.966,2.528-12.966,2.528l-.884,5.422,7.017,5.319" transform="translate(-444.148 -311.064)" fill="#ecc298"/><path d="M1122.058,657.622h94.915a5.435,5.435,0,0,1,5.435,5.435h0a5.435,5.435,0,0,1-5.435,5.435h-94.915a5.435,5.435,0,0,1-5.435-5.435h0A5.435,5.435,0,0,1,1122.058,657.622Z" transform="translate(-432.01 -380.052)" fill="#789592"/><path d="M887.284,657.622H916.8a5.435,5.435,0,0,1,5.435,5.435h0a5.435,5.435,0,0,1-5.435,5.435H887.284a5.435,5.435,0,0,1-5.435-5.435h0A5.435,5.435,0,0,1,887.284,657.622Z" transform="translate(-237.278 -380.052)" fill="#789592"/><path d="M957.066,637.255s.493-1.557-7.765-2.6-15.909-4.1-19.46,2.583Z" transform="translate(-277.085 -359.664)" fill="#f2e4e4"/><path d="M1134.879,607.917s3.075-3.459,10.081-2.56,7.991,2.246,10.365,2.236,3.973,0,3.973,0l2.044,3.293s-22.4-2.116-23.158-2.244S1134.879,607.917,1134.879,607.917Z" transform="translate(-447.153 -336.577)" fill="#c37e57" opacity="0.5" style="isolation:isolate"/><path d="M1294.711,599.24c-.347.477-3.04,1-5.964-.05s-15.75.615-18.616-.166l-.1-.025h-.017a4.674,4.674,0,0,0-1.956,0c-1.677.3-2.707.838-2.707-3.624,0-6.079-4.634-15.778-5.437-16.793-1.189-1.505-.75-2.113-.75-2.113.173-.517,1.73-.722,1.73-.722,6.015-2.084,9.581-3.157,15.489-2.727s14.562,5.7,15.025,5.994a3.515,3.515,0,0,1,1.275,1.244c.447.692.978,1.91-.492,4.777S1295.061,598.762,1294.711,599.24Z" transform="translate(-550.175 -309.801)" fill="#368c84"/><path d="M1603.133,645.538a4.565,4.565,0,0,0,1.956-1.469S1605.126,645.711,1603.133,645.538Z" transform="translate(-835.544 -368.81)" fill="#c37e57" opacity="0.5" style="isolation:isolate"/><path d="M1394.284,586.342a16.831,16.831,0,0,1,1.428,4.751C1395.743,592.794,1396.825,587.934,1394.284,586.342Z" transform="translate(-662.315 -320.929)" fill="#368c84" opacity="0.5" style="isolation:isolate"/><path d="M1409.624,602.435a11.392,11.392,0,0,1-.14,3.3S1410.507,603.47,1409.624,602.435Z" transform="translate(-674.923 -334.277)" fill="#368c84" opacity="0.5" style="isolation:isolate"/><path d="M1268.322,593.193s-.551.724.289,1.737a10.3,10.3,0,0,1,1.419,2.7,6.566,6.566,0,0,0-.942-2.96C1268.224,593.387,1268.09,593.714,1268.322,593.193Z" transform="translate(-557.689 -326.612)" fill="#368c84" opacity="0.5" style="isolation:isolate"/><path d="M1408.771,653.929s-1.359-.344-1.372-.689-4.728.689-4.728.689Z" transform="translate(-669.272 -376.359)" fill="#368c84" opacity="0.5" style="isolation:isolate"/><path d="M1126.415,615.5s-.216,3.644,4.192,3.644h44.1a3.9,3.9,0,0,0,3.416-1.6s.14-1.2-4.1-.224a2.936,2.936,0,0,1-.838-.458,3.89,3.89,0,0,0-2.857-1.171c-1.249-.131-2.151.451-2.742.368-5.73-.812-10.769-4.324-17.905-2.655-3.963.926-8.361-3-17.4-2.012a12.112,12.112,0,0,0-4.067,1.258A3.571,3.571,0,0,0,1126.415,615.5Z" transform="translate(-440.131 -341.57)" fill="#ecc298"/><path d="M1254.412,628.844a5.964,5.964,0,0,1,.521,2.729S1256.008,629.721,1254.412,628.844Z" transform="translate(-546.299 -356.182)" fill="#c37e57"/><path d="M1405.206,648.963s1.325-1.087,2.064-.254c0,0,.406.19-.25.509-.621.3-.667.752-4.353.752Z" transform="translate(-669.268 -372.398)" fill="#ecc298"/><path d="M1414.874,649.464a3.492,3.492,0,0,0-2.44.678A17.144,17.144,0,0,1,1414.874,649.464Z" transform="translate(-677.37 -373.261)" fill="#c37e57"/><path d="M1171.1,645.966h-39.54c-2.672,0-3.644-1.341-3.994-2.4,0,0,1.267,2.222,6.619,1.667,8.473-.879,11.207.266,15.624.25,5.469-.018,3.417-1.916,15.953-.208C1168.484,645.648,1170.13,645.8,1171.1,645.966Z" transform="translate(-441.084 -368.396)" fill="#c37e57" opacity="0.5" style="isolation:isolate"/><path d="M1336.779,667.708s.814,7.18,6.5,8.28A15.588,15.588,0,0,1,1336.779,667.708Z" transform="translate(-614.618 -388.418)" fill="#368c84" opacity="0.5" style="isolation:isolate"/><path d="M1426.458,687.742s-.5,4.807,1.413,5.849A12.766,12.766,0,0,1,1426.458,687.742Z" transform="translate(-688.954 -405.035)" fill="#368c84" opacity="0.5" style="isolation:isolate"/><path d="M1341.4,663.57a7.924,7.924,0,0,0,3.251,3.648A36.183,36.183,0,0,1,1341.4,663.57Z" transform="translate(-618.444 -384.979)" fill="#368c84" opacity="0.5" style="isolation:isolate"/><path d="M1311.523,714.9a4.676,4.676,0,0,0-1.956,0,2.65,2.65,0,0,1-.331-2.236C1309.421,713.9,1311.28,714.816,1311.523,714.9Z" transform="translate(-591.682 -425.71)" fill="#368c84" opacity="0.5" style="isolation:isolate"/><path d="M1470.163,641.569a5.851,5.851,0,0,1-1.078,2.359C1469.08,643.931,1470.7,643.682,1470.163,641.569Z" transform="translate(-724.358 -366.737)" fill="#c37e57" opacity="0.5" style="isolation:isolate"/><path d="M1047.4,626.467s.462.723,0,1.23C1047.4,627.7,1048.573,627.146,1047.4,626.467Z" transform="translate(-374.595 -354.211)" fill="#3c3427"/><path d="M1048.294,606.86s.462.724,0,1.23C1048.294,608.09,1049.466,607.541,1048.294,606.86Z" transform="translate(-375.335 -337.948)" fill="#3c3427"/><rect width="4.208" height="39.896" transform="translate(664.761 292.667)" fill="#414141"/><rect width="4.208" height="39.896" transform="translate(762.563 292.667)" fill="#414141"/><rect width="102.01" height="1.216" transform="translate(664.761 296.258)" fill="#414141"/><path d="M1208.548,503.929c-.07,1.273-.116,2.435-.161,3.487-.226,5.408-.342,7.917-2.633,7.768-2.736-.177-2.537-.707-3.441-1.761-.5-.58-.431-3.4-.268-5.814.13-1.973.325-3.68.325-3.68C1202.818,501.837,1208.548,503.929,1208.548,503.929Z" transform="translate(-502.765 -251.801)" fill="#edc298"/><path d="M1209.13,503.921c-.07,1.273-.116,2.435-.161,3.487a9.471,9.471,0,0,0-2.208-1.629c-1.8-.926-4.134,1.817-4.134,1.817.13-1.973.324-3.68.324-3.68C1203.4,501.829,1209.13,503.921,1209.13,503.921Z" transform="translate(-503.347 -251.793)" fill="#c37e57" opacity="0.5" style="isolation:isolate"/><path d="M1261.321,496.261a15.956,15.956,0,0,1,2.108,5.073s7.446,1.62,12.272-2.954a36.5,36.5,0,0,1-1.2-7.348C1274.447,487.84,1261.4,493.564,1261.321,496.261Z" transform="translate(-552.03 -241.093)" fill="#f1b6b6"/><path d="M1215.98,405.033s-7.186-.475-10.245,3.162-5.432,5.285-4.788,9.54a20.024,20.024,0,0,1,.307,4.809s3.634,2.03,6.655-.06c0,0,2.817,5.745,10.074,3.74s7.148-8.41,6.486-11.386l.029.451a2.861,2.861,0,0,0,2.376-.419c1.538-.809,1.268-1.174,1.268-1.174a16.825,16.825,0,0,0-3.863-5.966C1221.6,405.182,1215.98,405.033,1215.98,405.033Z" transform="translate(-501.864 -170.526)" fill="#f8e6e6"/><path d="M1230.863,478.75s-3.756-3.751-4-7.853C1226.865,470.9,1229.07,476.66,1230.863,478.75Z" transform="translate(-523.45 -225.174)" fill="#f1b6b6"/><path d="M1216.786,475.034s1.725,2.788,2.633,2.6S1219.7,478.366,1216.786,475.034Z" transform="translate(-515.09 -228.605)" fill="#f1b6b6"/><path d="M1220.481,491.071l1.437-.4.074.267A2.919,2.919,0,0,1,1220.481,491.071Z" transform="translate(-518.155 -241.578)" fill="#f1b6b6"/><path d="M1210.624,501.024s1.509,1.016,4.631-1.05c0,0,.2-.07-.139.257A3.473,3.473,0,0,1,1210.624,501.024Z" transform="translate(-509.979 -249.287)" fill="#f1b6b6"/><path d="M1336.984,449.5a7.142,7.142,0,0,0,2.949-1.372s-.115.823-1.338,1.179S1336.984,449.5,1336.984,449.5Z" transform="translate(-614.788 -206.286)" fill="#f1b6b6"/><path d="M1333.029,438.742a5.337,5.337,0,0,0,.619-1.31s.419.875-.663,1.658Z" transform="translate(-611.471 -197.416)" fill="#f1b6b6"/><path d="M1232.43,333.4a31.689,31.689,0,0,0,1.218,3.34c.978,2.974,4.936,10.448.848,13.035s-8.245-5.924-8.417-9.952a38.627,38.627,0,0,0-1.284-7.383c-.34-1.3-.612-2.172-.612-2.172l-.816-3.7s7.835-6.832,7.617-3.494C1230.826,325.466,1231.57,329.875,1232.43,333.4Z" transform="translate(-520.548 -101.797)" fill="#edc298"/><path d="M1231.1,321.277a43,43,0,0,0,1.277,10.539c-1.065.431-2.592-.59-5.311-1.43-1.574-.488-2.128,0-2.3.587-.34-1.3-.612-2.172-.612-2.172l-.816-3.7S1231.319,317.933,1231.1,321.277Z" transform="translate(-520.528 -100.335)" fill="#c57c59"/><path d="M1188.691,279.6s-2.527.819-1.85,6.785,1.995,8.866,6.827,8.6c5.568-.311,5.983-8.088,6.793-8.231s1.621-1.015,1.136-3.066-2.236-2.655-2.156-.619.05,2.281.05,2.281l-1.107-2.935s-.246.769-.447.824-.591-1.456-.584-.162-.1.891-1.139-.419-2.56-.183-5.376-1.78S1188.691,279.6,1188.691,279.6Z" transform="translate(-490.157 -66.481)" fill="#edc298"/><path d="M1180.927,236.067s-6.881,1.611-6.6,8.215,2.447,7.372,2.447,7.372-1.212-6.623,1.469-8.174a10.89,10.89,0,0,0,5.01,2.1c3,.419,3.056,1.787,3.531,2.625,0,0,.077.419.312-.491a8.227,8.227,0,0,0,.139-1.135c0-.366.14.734.428.6s.447-.952.447-.952a18.886,18.886,0,0,0,1.073,2.907c.171-.027-.387-3.258.541-3.513s1.476,1.227,1.656,2.018a3.086,3.086,0,0,1-1.152,2.87,35.49,35.49,0,0,0,.839,7.925s5.046-2.244,4.5-6.987a4.675,4.675,0,0,0-1.09-1.6c-.767-.719-1.307-6.2-2.289-8.434S1188.209,234.3,1180.927,236.067Z" transform="translate(-479.869 -30.081)" fill="#3b3328"/><path d="M1209.305,250.545a10.89,10.89,0,0,0,2.236.838c.9.165,3.527.358,4.4,1.972a8.088,8.088,0,0,1,1.335,4.83,8.051,8.051,0,0,0-.958-4.971c-1.389-2.154-3.676-1.9-4.719-2.1S1209.305,250.545,1209.305,250.545Z" transform="translate(-508.885 -42.404)" fill="#bbb"/><path d="M1195.348,250.634a5.2,5.2,0,0,0-1.138,2.935,3.637,3.637,0,0,0,1.7,2.885,6.945,6.945,0,0,1-1.136-3.266A8.322,8.322,0,0,1,1195.348,250.634Z" transform="translate(-496.36 -42.477)" fill="#bbb"/><path d="M1168.965,261.776s-.534-.99-1.294.124-.189,1.159-.189,1.159-.838.15-.9.814a.759.759,0,0,0,.551.819s-.838.405-.391.878,1.017.266,1.765-.154a.588.588,0,0,0,.623.1,2.74,2.74,0,0,0,1.108-2.247s-.048-.216-.376-.131c0,0,.541-.481.411-.9s-.655-.943-1.039-.778S1168.965,261.776,1168.965,261.776Z" transform="translate(-473.446 -51.383)" fill="#faf9e7"/><path d="M1171.02,265.376a1.313,1.313,0,0,1,.5.28,5.478,5.478,0,0,1,.484-.472,3.216,3.216,0,0,1,.37-1.061,3.3,3.3,0,0,0-.242,1.078s.249-.022.333.295a1.329,1.329,0,0,1,.721-.074,1.374,1.374,0,0,0-.689.218s.139.521-.654,1.293a1.426,1.426,0,0,0,.072.681.889.889,0,0,1-.231-.57.372.372,0,0,1-.407-.236c-.172-.108-.559.152-.559.152a.705.705,0,0,1,.494-.32,1.047,1.047,0,0,1,.25-.934,2.587,2.587,0,0,0-.44-.331Z" transform="translate(-476.878 -53.665)" fill="#e34b28"/><path d="M1259.36,319.357s-.924.013-1.006.559.279.777.474.7a1,1,0,0,0,.28-.14s-.133.727.337.663a.6.6,0,0,0,.6-.559s.14.321.407.184a.781.781,0,0,0,.467-.848c-.113-.375-.63-.428-.752-.419A6,6,0,0,1,1259.36,319.357Z" transform="translate(-549.559 -99.479)" fill="#faf9e7"/><path d="M1264,316.787a.565.565,0,1,1-.314.667A.524.524,0,0,1,1264,316.787Z" transform="translate(-553.975 -97.335)" fill="#e34b28"/><path d="M1263.82,322.193a2.656,2.656,0,0,0-.192-.546c-.06-.045-.435-.036-.688.489a2.62,2.62,0,0,1,.345-.657c.124-.088.477.064.477.064A1.4,1.4,0,0,1,1263.82,322.193Z" transform="translate(-553.373 -101.217)" fill="#e34b28"/><path d="M1196.547,303.877a1.746,1.746,0,0,1,1.873-.618s.3.213.249-.319S1196.959,302.927,1196.547,303.877Z" transform="translate(-498.303 -85.686)" fill="#3b3328"/><path d="M1200.144,314.92a.881.881,0,0,1,1.241-.442s.224.232.14-.289S1200.348,314.031,1200.144,314.92Z" transform="translate(-501.287 -94.993)" fill="#3b3328"/><path d="M1223.052,311.3a.885.885,0,0,0-1.293.258s-.072.314-.28-.175S1222.422,310.639,1223.052,311.3Z" transform="translate(-518.962 -92.464)" fill="#3b3328"/><path d="M1219.2,298.638a1.75,1.75,0,0,0-1.924.431s-.14.334-.377-.14S1218.359,298.037,1219.2,298.638Z" transform="translate(-515.165 -82.047)" fill="#3b3328"/><path d="M1211.129,313.318a3.394,3.394,0,0,1-.361,2.327c-.573,1.017.838.433,1.118-.038.14-.233-.8.559-.8.007,0-.065.12-.457.161-.66A3.272,3.272,0,0,0,1211.129,313.318Z" transform="translate(-509.986 -94.47)" fill="#c37e57"/><path d="M1217.4,324.426a2.2,2.2,0,0,0,1.783-1.4s.172-.28-.4-.309c-.419-.02.115-.513.777-.075.591.39.2.358.036.323-.394-.088-.407,1.5-2.173,1.655C1217.424,324.616,1217.052,324.533,1217.4,324.426Z" transform="translate(-515.476 -102.056)" fill="#c37e57"/><path d="M1241.02,392.7s-1.356,7.01-2.895,7.686-2.655,1.53-6.108-.025-4.731-11.617-4.731-11.617a23.074,23.074,0,0,1-1.182-3.559c0-.625,1.363-1.15,1.363-1.15l.247,1.128.921.455c.427.2.591.107,1.617,1.37l.045.055c1.066,1.319,1.461,4.407,1.461,4.407l.737.713,1.451,4.566,2.063,1.022.429-2.059s-1.453-2.62-1.789-3.445-.2-1.107-.2-1.107-.341-1.134-.759-3.042,1.194-4.081,1.194-4.081l-.4-1.569.784-.061c.819-.064,1.558,2.515,1.677,2.824a3.284,3.284,0,0,1,.082.978C1237.75,386.476,1241.02,392.7,1241.02,392.7Z" transform="translate(-522.82 -151.755)" fill="#f8e6e6"/><path d="M1234.538,399a5.162,5.162,0,0,0-1.645-1.144,6.883,6.883,0,0,1-1.624-1,2.811,2.811,0,0,0,.559.239v.008l1.1.524C1233.348,397.829,1233.511,397.735,1234.538,399Z" transform="translate(-527.103 -163.761)" fill="#f1b6b6"/><path d="M1270.245,391.339s-.375-2.2.485-3.192a5.678,5.678,0,0,0,1.022-2.731,8.094,8.094,0,0,1-1.154,2.266A3.881,3.881,0,0,0,1270.245,391.339Z" transform="translate(-559.208 -154.273)" fill="#f1b6b6"/><path d="M1235.026,419.259l4.132,2.781.736.713.052.184A44.522,44.522,0,0,1,1235.026,419.259Z" transform="translate(-530.219 -182.343)" fill="#f1b6b6"/><path d="M1274.8,411.837a31.009,31.009,0,0,0,2.33-4.493s.194-.14-.18.715a24,24,0,0,1-2.132,4.332A.68.68,0,0,1,1274.8,411.837Z" transform="translate(-563.167 -172.453)" fill="#f1b6b6"/><path d="M1202.208,556.022c.064,2.2.925,3.773,2.33,4.425s2.2.908,2.456,2.211,3.075,1.761,3.425.207,0-.472,0-.472,1.4.871,1.569-.043-1-.492-2.638-2.854-1.015-3.473-1.015-3.473Z" transform="translate(-502.999 -295.78)" fill="#edc298"/><path d="M1216.627,555.048a5.112,5.112,0,0,0-4.168-1.054s2.532-1.154,3.363-.1S1216.675,554.349,1216.627,555.048Z" transform="translate(-511.501 -293.645)" fill="#c37e57" opacity="0.5" style="isolation:isolate"/><path d="M1265.2,471.829c-.435,1.853-4.332,4.443-10.7,7.106-2.886,1.206-4.6,2.345-6.215,2.866a10.061,10.061,0,0,1-3.494.513l-2.142-3.624s3.494-.078,7.258-3.554a32.03,32.03,0,0,1,8.525-5.408l-.541-2.912c2.209-2.714,1.293-7.519,1.293-7.519a4.7,4.7,0,0,0,3.537-1.226,21.374,21.374,0,0,1,1.258,4.49h0C1264.6,465.979,1265.49,470.581,1265.2,471.829Z" transform="translate(-536.537 -214.536)" fill="#edc298"/><path d="M1329.4,438.646a30.048,30.048,0,0,1,1.957,7.665A12.979,12.979,0,0,0,1329.4,438.646Z" transform="translate(-608.501 -198.423)" fill="#f1b6b6"/><path d="M1338.1,462.563c-1.639-.778-3.34,1.3-4.007,2.486a32.318,32.318,0,0,0-1.537,4.68l-.544-2.912c2.209-2.714,1.293-7.519,1.293-7.519a4.7,4.7,0,0,0,3.537-1.226A21.567,21.567,0,0,1,1338.1,462.563Z" transform="translate(-610.663 -214.537)" fill="#c37e57" opacity="0.5" style="isolation:isolate"/><path d="M1228.869,584.524a3.414,3.414,0,0,1,1.875-.216c.8.233,1,.057,1.289.362s.1-.043-.883-.072a10.653,10.653,0,0,0-2.36.116C1228.326,584.829,1228.869,584.524,1228.869,584.524Z" transform="translate(-524.891 -319.187)" fill="#c37e57" opacity="0.5" style="isolation:isolate"/><path d="M1228.658,590.809c.168.941,0,2.138.617,2.142.678,0,.435-1.882.435-1.882a5.83,5.83,0,0,1,.057,2.056c-.106.486.12.6.3.611.58.017.729-1.435.643-1.927a7.927,7.927,0,0,0-.189-.826,2.494,2.494,0,0,1,.406,1.537c-.048,1.033-.029,1.118.246,1.159.327.052.926-.8.535-2.142l-.29-.724a2.9,2.9,0,0,1,.6,1.78c-.031.513.04.9.279.874.113-.014.257-.116.4-.342a1.829,1.829,0,0,0,.11-.956,5.294,5.294,0,0,0-.333-1.356l.032.025a1.868,1.868,0,0,1,.508.652c.1.214.264.431.46.335a.839.839,0,0,0,.439-.521s-.131.708-.591.748a.429.429,0,0,1-.431-.311,2.005,2.005,0,0,1-.216,1.694c-.226.291-.569.279-.683.117a.6.6,0,0,1-.1-.369l.01-.349s-.14,1.02-.7,1.033c-.71.014-.411-1.1-.411-1.1s-.072.931-.486,1.1-.8-.045-.766-.741c0,0-.429.129-.639-.057-.158-.14-.189-.289-.239-.724a15.337,15.337,0,0,1,.005-1.537Z" transform="translate(-524.919 -324.633)" fill="#c37e57" opacity="0.5" style="isolation:isolate"/><path d="M1204.723,581.539s-1.551.158-1.406.6,1.357.213,1.805.218c0,0-1.782.14-1.667.455s1.035.419,2.154.2c0,0-1.9.189-1.74.468s1.17.373,1.922.113c0,0-1.237.28-.961.491a4.921,4.921,0,0,0,2.655-.383s-1.773.9-2.759.548c0,0-.257-.228.013-.367,0,0-.9-.124-.994-.291s.089-.326.257-.372c0,0-.715-.123-.745-.328s.419-.4.419-.4-.549-.154-.575-.367S1203.373,581.526,1204.723,581.539Z" transform="translate(-503.739 -316.945)" fill="#c37e57" opacity="0.5" style="isolation:isolate"/><path d="M1247.341,580.4a6.43,6.43,0,0,0,1.275.724,1.158,1.158,0,0,1,.728.936,1.4,1.4,0,0,0-.748-.657A2.735,2.735,0,0,1,1247.341,580.4Z" transform="translate(-540.434 -316.001)" fill="#c37e57" opacity="0.5" style="isolation:isolate"/><path d="M1220.351,583.237c.087.038,1.419.762,1.419,1.244s.038.869.038.869a8.481,8.481,0,0,0-.366-1.057A6.148,6.148,0,0,0,1220.351,583.237Z" transform="translate(-518.047 -318.354)" fill="#c37e57" opacity="0.5" style="isolation:isolate"/><path d="M1336.552,529.148c-.465,0,2.707,1.069,2.707,1.378A3.125,3.125,0,0,0,1336.552,529.148Z" transform="translate(-614.391 -273.49)" fill="#c37e57" opacity="0.5" style="isolation:isolate"/><path d="M1242.6,574.436l2.457.216s-1.188.862-1.889.559S1242.6,574.436,1242.6,574.436Z" transform="translate(-536.49 -311.054)" fill="#edc298"/></g></g></svg>