<svg xmlns="http://www.w3.org/2000/svg" xmlns:xlink="http://www.w3.org/1999/xlink" width="232.544" height="144.009" viewBox="0 0 232.544 144.009"><defs><linearGradient id="a" x1="13.564" y1="-19.763" x2="13.564" y2="-19.755" gradientUnits="objectBoundingBox"><stop offset="0" stop-color="#fff" stop-opacity="0.38"/><stop offset="1" stop-color="#fff" stop-opacity="0.549"/></linearGradient><linearGradient id="b" x1="26.971" y1="-19.763" x2="26.971" y2="-19.755" gradientUnits="objectBoundingBox"><stop offset="0" stop-color="#fff"/><stop offset="1" stop-color="#fff" stop-opacity="0.322"/></linearGradient></defs><g transform="translate(-724.5 -3930.09)"><g transform="translate(32.337 3759.772)"><g transform="translate(692.663 191.655)"><path d="M13.288-.5h4.669a13.788,13.788,0,0,1,9.75,23.538,13.7,13.7,0,0,1-9.75,4.038H13.288A13.788,13.788,0,0,1,3.538,3.538,13.7,13.7,0,0,1,13.288-.5Zm4.669,26.576A12.788,12.788,0,0,0,27,4.246,12.7,12.7,0,0,0,17.958.5H13.288A12.788,12.788,0,0,0,4.246,22.331a12.7,12.7,0,0,0,9.043,3.746Z" transform="translate(8.293 0)" fill="#d3d3d3"/><path d="M0-.5H13.663a.5.5,0,0,1,.5.5V4.739a.5.5,0,0,1-.5.5H0a.5.5,0,0,1-.5-.5V0A.5.5,0,0,1,0-.5ZM13.163.5H.5V4.239H13.163Z" transform="translate(17.085 26.62)" fill="#d3d3d3"/><path d="M11.952-.5A12.452,12.452,0,0,1,24.4,11.952v2.672A12.452,12.452,0,0,1,3.147,23.429,12.371,12.371,0,0,1-.5,14.624V11.952A12.452,12.452,0,0,1,11.952-.5Zm0,26.576A11.452,11.452,0,0,0,23.4,14.624V11.952a11.452,11.452,0,0,0-19.55-8.1A11.377,11.377,0,0,0,.5,11.952v2.672A11.452,11.452,0,0,0,11.952,26.076Z" transform="translate(15.635 0)" fill="#d3d3d3"/><path d="M10.5-.5a11,11,0,0,1,11,11v3.536a11,11,0,0,1-18.78,7.779A10.929,10.929,0,0,1-.5,14.037V10.5a11,11,0,0,1,11-11Zm0,24.538a10.012,10.012,0,0,0,10-10V10.5a10,10,0,0,0-20,0v3.536A10.012,10.012,0,0,0,10.5,24.038Z" transform="translate(17.086 1.019)" fill="#d3d3d3"/><path d="M740.065,441.533h16.856v1H740.065a3.819,3.819,0,0,0-3.814,3.813V519.1h44.372V471.052a21.868,21.868,0,0,0-6.4-15.463l-10.064-10.06a10.225,10.225,0,0,0-7.231-3v-1a11.225,11.225,0,0,1,7.938,3.289l10.064,10.06a22.868,22.868,0,0,1,6.7,16.17V519.6a.5.5,0,0,1-.5.5H735.751a.5.5,0,0,1-.5-.5V446.345A4.82,4.82,0,0,1,740.065,441.533Z" transform="translate(-727.458 -410.672)" fill="#d3d3d3"/><path d="M735.751,844.548H791.8a9.559,9.559,0,0,1,9.548,9.548.5.5,0,0,1-.5.5h-65.1a.5.5,0,0,1-.5-.5v-9.048A.5.5,0,0,1,735.751,844.548Zm64.584,9.048a8.559,8.559,0,0,0-8.533-8.048H736.251V853.6Z" transform="translate(-727.458 -736.122)" fill="#d3d3d3"/><path d="M781.431,533.271a.5.5,0,0,1-.5-.5V463.385a5.539,5.539,0,0,1,5.538-5.539H801.4a.5.5,0,0,1,0,1H786.47a4.539,4.539,0,0,0-4.539,4.538v69.387A.5.5,0,0,1,781.431,533.271Z" transform="translate(-764.347 -423.845)" fill="#d3d3d3"/><path d="M0,72.176a.5.5,0,0,1-.5-.5V0A.5.5,0,0,1,0-.5.5.5,0,0,1,.5,0V71.676A.5.5,0,0,1,0,72.176Z" transform="translate(22.022 37.25)" fill="#d3d3d3"/><path d="M0-.5H14.227a.5.5,0,0,1,.5.5V26.829a.5.5,0,0,1-.5.5H0a.5.5,0,0,1-.5-.5V0A.5.5,0,0,1,0-.5ZM13.727.5H.5V26.329H13.727Z" transform="translate(35.079 53.932)" fill="#d3d3d3"/><path d="M700.956,411.889a.5.5,0,0,1-.379-.174,25.819,25.819,0,0,1-6.33-11.388c-1.441-5.427-2.084-13.395-2.084-25.834a87.746,87.746,0,0,1,1.3-15.905,44.216,44.216,0,0,1,2.885-9.759c2.105-4.745,4.228-6.265,4.317-6.328a.5.5,0,0,1,.575.818c-.024.017-2.038,1.491-4.031,6.035a43.619,43.619,0,0,0-2.783,9.524,86.991,86.991,0,0,0-1.267,15.614c0,25.884,2.8,30.34,8.172,36.569a.5.5,0,0,1-.378.826Z" transform="translate(-692.663 -330.628)" fill="#d3d3d3"/><path d="M754.566,891.558h7.741a.5.5,0,0,1,.5.479c0,.048,0,.1,0,.144a4.372,4.372,0,1,1-8.744,0v-.123A.5.5,0,0,1,754.566,891.558Zm7.223,1h-6.7a3.372,3.372,0,0,0,6.7,0Z" transform="translate(-742.652 -774.084)" fill="#d3d3d3"/><path d="M1009.606,891.558h7.741a.5.5,0,0,1,.5.478c0,.049,0,.1,0,.146a4.372,4.372,0,1,1-8.744,0v-.123A.5.5,0,0,1,1009.606,891.558Zm7.223,1h-6.7a3.372,3.372,0,0,0,6.7,0Z" transform="translate(-948.607 -774.084)" fill="#d3d3d3"/><path d="M946.771,891.558h7.741a.5.5,0,0,1,.5.482c0,.047,0,.093,0,.139a4.372,4.372,0,1,1-8.744,0v-.123A.5.5,0,0,1,946.771,891.558Zm7.223,1h-6.7a3.372,3.372,0,0,0,6.7,0Z" transform="translate(-897.865 -774.084)" fill="#d3d3d3"/><path d="M812.187,891.558h7.741a.5.5,0,0,1,.5.482c0,.048,0,.095,0,.142a4.372,4.372,0,0,1-8.744,0v-.123A.5.5,0,0,1,812.187,891.558Zm7.223,1h-6.7a3.372,3.372,0,0,0,6.7,0Z" transform="translate(-789.183 -774.084)" fill="#d3d3d3"/></g><g transform="translate(872.191 170.818)"><path d="M13.052-.5H34.5A13.552,13.552,0,0,1,48.051,13.052V39.463A13.552,13.552,0,0,1,34.5,53.015H13.052A13.552,13.552,0,0,1-.5,39.463V13.052A13.552,13.552,0,0,1,13.052-.5ZM34.5,52.015A12.552,12.552,0,0,0,47.051,39.463V13.052A12.552,12.552,0,0,0,34.5.5H13.052A12.552,12.552,0,0,0,.5,13.052V39.463A12.552,12.552,0,0,0,13.052,52.015Z" transform="translate(0 0)" fill="#d3d3d3"/><path d="M13.052-.5H23.326A13.552,13.552,0,0,1,36.878,13.052V39.463A13.552,13.552,0,0,1,23.326,53.015H13.052A13.552,13.552,0,0,1-.5,39.463V13.052A13.552,13.552,0,0,1,13.052-.5ZM23.326,52.015A12.552,12.552,0,0,0,35.878,39.463V13.052A12.552,12.552,0,0,0,23.326.5H13.052A12.552,12.552,0,0,0,.5,13.052V39.463A12.552,12.552,0,0,0,13.052,52.015Z" transform="translate(0 0)" fill="#d3d3d3"/><path d="M13.052-.5h5.857A13.552,13.552,0,0,1,32.46,13.052V35.435A13.552,13.552,0,0,1,18.909,48.987H13.052A13.552,13.552,0,0,1-.5,35.435V13.052A13.552,13.552,0,0,1,13.052-.5Zm5.857,48.487A12.552,12.552,0,0,0,31.46,35.435V13.052A12.552,12.552,0,0,0,18.909.5H13.052A12.552,12.552,0,0,0,.5,13.052V35.435A12.552,12.552,0,0,0,13.052,47.987Z" transform="translate(2.209 2.014)" fill="#d3d3d3"/></g><path d="M15.675-.5H90.51a16.175,16.175,0,0,1,16.175,16.175V36.84A16.175,16.175,0,0,1,90.51,53.015H15.675A16.175,16.175,0,0,1-.5,36.84V15.675A16.175,16.175,0,0,1,15.675-.5ZM90.51,52.015A15.175,15.175,0,0,0,105.685,36.84V15.675A15.175,15.175,0,0,0,90.51.5H15.675A15.175,15.175,0,0,0,.5,15.675V36.84A15.175,15.175,0,0,0,15.675,52.015Z" transform="translate(752.839 170.818)" fill="#d3d3d3"/><path d="M15.675,0H86.093a15.675,15.675,0,0,1,15.675,15.675V32.812A15.675,15.675,0,0,1,86.093,48.487H15.675A15.675,15.675,0,0,1,0,32.812V15.675A15.675,15.675,0,0,1,15.675,0Z" transform="translate(755.048 172.832)" fill="#d3d3d3" opacity="0.501"/><g transform="translate(791.346 172.832)" opacity="0.87"><path d="M1247.69,181.284l-12.962,48.487h-29.323l12.96-48.487Z" transform="translate(-1205.405 -181.284)" opacity="0.3" fill="url(#a)"/><path d="M1408.551,181.284l-12.961,48.487H1388.8l12.961-48.487Z" transform="translate(-1353.506 -181.284)" opacity="0.3" fill="url(#b)"/></g><g transform="translate(865.178 248.904)"><path d="M0-.5H54.574a.5.5,0,0,1,.5.5V4.172a.5.5,0,0,1-.5.5H0a.5.5,0,0,1-.5-.5V0A.5.5,0,0,1,0-.5ZM54.074.5H.5V3.672H54.074Z" transform="translate(0 18.852)" fill="#d3d3d3"/><path d="M1709.034,695.667h8.38a.5.5,0,0,1,.5.5v2.826a4.69,4.69,0,0,1-9.38,0v-2.815s0-.007,0-.011A.5.5,0,0,1,1709.034,695.667Zm7.88,1h-7.38v2.326a3.69,3.69,0,0,0,7.38,0Z" transform="translate(-1685.937 -673.144)" fill="#d3d3d3"/><path d="M0-.5H3.242a.5.5,0,0,1,.5.5V10.134a.5.5,0,0,1-.5.5H0a.5.5,0,0,1-.5-.5V0A.5.5,0,0,1,0-.5ZM2.742.5H.5V9.634H2.742Z" transform="translate(25.666 30.039)" fill="#d3d3d3"/><path d="M0-.5H3.242a.5.5,0,0,1,.5.5V10.134a.5.5,0,0,1-.5.5H0a.5.5,0,0,1-.5-.5V0A.5.5,0,0,1,0-.5ZM2.742.5H.5V9.634H2.742Z" transform="translate(25.666 52.84)" fill="#d3d3d3"/><path d="M0-.5H5.2a.5.5,0,0,1,.5.5V12.667a.5.5,0,0,1-.5.5H0a.5.5,0,0,1-.5-.5V0A.5.5,0,0,1,0-.5ZM4.7.5H.5V12.167H4.7Z" transform="translate(24.685 40.173)" fill="#d3d3d3"/><path d="M0-.5H32.74a.5.5,0,0,1,.5.5V1.948a.5.5,0,0,1-.5.5H0a.5.5,0,0,1-.5-.5V0A.5.5,0,0,1,0-.5ZM32.24.5H.5v.948H32.24Z" transform="translate(10.986 62.974)" fill="#d3d3d3"/><path d="M1707.356,603.929h6.6a.688.688,0,0,1,.687.687v1.549a.688.688,0,0,1-.687.687h-.491v2.179h2.313a.688.688,0,0,1,.687.687V617.6a.688.688,0,0,1-.687.687h-9.911a.688.688,0,0,1-.687-.687v-7.882a.688.688,0,0,1,.687-.687h1.978v-2.179h-.491a.688.688,0,0,1-.687-.687v-1.549A.688.688,0,0,1,1707.356,603.929Zm5.919,1.373h-5.23v.177l5.23,0Zm-2.526,1.551h-1.523v2.18h1.523Zm2.082,3.553h-6.274v6.507h6.274Zm2.262,0h-.89v6.507h.89Z" transform="translate(-1683.23 -599.062)" fill="#d3d3d3"/><path d="M1719.4,646.944h-1.342a.688.688,0,0,1-.687-.687v-.312h-.312a.686.686,0,0,1-.686-.658V643.92a.688.688,0,0,1,.687-.687h.312v-.319a.688.688,0,0,1,.687-.687h1.341a.688.688,0,0,1,.687.687v.312h.311a.688.688,0,0,1,.687.687v1.346a.689.689,0,0,1-.687.686h-.311v.312A.688.688,0,0,1,1719.4,646.944Zm-1.193-2.357a.522.522,0,0,0,1.045,0,.522.522,0,1,0-1.045,0Z" transform="translate(-1692.267 -629.989)" fill="#d3d3d3"/><path d="M1768.642,595.767h-9.361a2.612,2.612,0,0,1-2.6-2.6V583.105a2.611,2.611,0,0,1,2.6-2.6h.637v-.871h-.555a.745.745,0,0,1-.743-.744v-2.1a.745.745,0,0,1,.741-.744h9.2a.745.745,0,0,1,.743.744v2.1a.745.745,0,0,1-.742.744h-.556v.871h.633a2.61,2.61,0,0,1,2.6,2.6v10.058A2.61,2.61,0,0,1,1768.642,595.767Zm-10.479-4.232v1.629a1.122,1.122,0,0,0,1.119,1.118h9.36a1.122,1.122,0,0,0,1.119-1.119v-1.628Zm0-1.485h11.6v-4.6h-11.6Zm0-6.089h11.6v-.854a1.122,1.122,0,0,0-1.12-1.118h-9.359a1.122,1.122,0,0,0-1.119,1.119Zm3.24-3.458h5.113v-.871H1761.4Zm-1.3-2.358h7.711v-.615H1760.1Z" transform="translate(-1724.815 -576.541)" fill="#d3d3d3"/><path d="M1782.349,622.777h1.582a.745.745,0,0,1,.743.744v.433h.434a.745.745,0,0,1,.743.744v1.585a.744.744,0,0,1-.743.744h-.434v.433a.744.744,0,0,1-.743.743h-1.582a.742.742,0,0,1-.743-.745v-.435h-.434a.745.745,0,0,1-.743-.745V624.7a.746.746,0,0,1,.741-.743h.436v-.433A.744.744,0,0,1,1782.349,622.777Zm.84,1.487h-.1v.433a.744.744,0,0,1-.743.743h-.434v.1h.434a.746.746,0,0,1,.743.741v.437h.1v-.434a.744.744,0,0,1,.743-.743h.434v-.1h-.434a.742.742,0,0,1-.743-.745Z" transform="translate(-1743.995 -614.282)" fill="#d3d3d3"/><path d="M1652.771,618.3h-12.657a.7.7,0,0,1-.7-.7v-5.881l0-.032c0-.018.006-.036.01-.054a.7.7,0,0,1,.021-.091l.008-.025a.71.71,0,0,1,.049-.105.525.525,0,0,1,.05-.079l2.531-3.376h-.177a.7.7,0,0,1-.7-.7v-2.616a.7.7,0,0,1,.7-.7h9.062a.7.7,0,0,1,.7.7v2.616a.7.7,0,0,1-.7.7h-.178l2.558,3.416a.622.622,0,0,1,.031.057.691.691,0,0,1,.04.089l.008.024a.667.667,0,0,1,.024.1c0,.011,0,.023.006.034l.005.036V617.6A.7.7,0,0,1,1652.771,618.3Zm-11.959-1.4h11.26v-4.453h-11.26Zm.7-5.85h5.244a.7.7,0,0,1,.662-.919h.446a.7.7,0,0,1,.562-1.113h.137a.7.7,0,0,1,.51-1.039l-.021-.029h-5.216Zm1.1-4.5h7.665v-1.219h-7.665Z" transform="translate(-1630.121 -599.078)" fill="#d3d3d3"/><path d="M1664.843,646.869h1.425a.7.7,0,0,1,.7.7v.362h.362a.7.7,0,0,1,.7.7v1.425a.7.7,0,0,1-.7.7h-.362v.362a.7.7,0,0,1-.7.7h-1.425a.7.7,0,0,1-.7-.7v-.36h-.362a.7.7,0,0,1-.7-.7v-1.425a.7.7,0,0,1,.7-.7h.363v-.362A.7.7,0,0,1,1664.843,646.869Zm.728,1.394h-.028v.364a.7.7,0,0,1-.7.7h-.362v.028h.362a.7.7,0,0,1,.7.7v.363h.028v-.362a.7.7,0,0,1,.7-.7h.361v-.031h-.362a.7.7,0,0,1-.7-.7Z" transform="translate(-1649.234 -633.737)" fill="#d3d3d3"/></g><g transform="translate(741.861 184.978)"><g transform="translate(0 0)"><g transform="translate(42.953 116.415)"><path d="M1293.267,853.682a11.118,11.118,0,0,0,4.529,5.931c1.231,2.007,1.289,3.79.069,3.885s-7.264-.295-9.426-2.953-4.312-7.679-2.86-8.545S1293.267,853.682,1293.267,853.682Z" transform="translate(-1263.234 -851.33)" fill="#213337" fill-rule="evenodd"/><path d="M1297.9,858.114c1.231,2.007,1.173,3.231-.044,3.324s-7.264-.295-9.426-2.953-4.312-7.679-2.861-8.545c3.4-2.028-.424.982,1.521,3.253,1.238,1.445,2.968,5.481,5.761,6.458C1294.244,860.139,1297.514,857.836,1297.9,858.114Z" transform="translate(-1263.231 -849.271)" fill="#f8f7e6" fill-rule="evenodd"/><path d="M1179.737,875.612s2.125,6.238.691,6.64c-1.375.391-6.925-.134-8.645-2.773-.571-.549.233-1.63.82-2.085a18.684,18.684,0,0,0,1.99-2.542Z" transform="translate(-1171.564 -869.929)" fill="#213337" fill-rule="evenodd"/><path d="M1180.76,891.934s.461,1.646-.432,2.076c-1.287.621-7.25-.365-8.584-2.612-.56-.943-.17-1.224.25-1.737.792-.97,1.513,1.225,1.513,1.225Z" transform="translate(-1171.465 -881.687)" fill="#f8f7e6" fill-rule="evenodd"/><path d="M1292.243,865.15s4.183,6.95,5.747,7.567,5.866,1.189,6.506.1c.276-.371-.384-1.345-.963-2.109s-6.192-1.108-7.234-.512A59.883,59.883,0,0,1,1292.243,865.15Z" transform="translate(-1268.998 -862.094)" fill="#4a6b70" fill-rule="evenodd"/><path d="M1173.181,889.058s-.188,1.89,4.876,2.966c4.153.88,4.176-.042,4.125-.691-.044-.564-.9-1.135-1.8-1.625s-5.828-1.76-6.732-1.218A3.218,3.218,0,0,0,1173.181,889.058Z" transform="translate(-1172.85 -880.835)" fill="#4a6b70" fill-rule="evenodd"/></g><path d="M1185.9,531.3s-1.934,1.391.92,12.546,8.6,33.247,9.646,38.406c1.012,5,1.122,8.831.913,9.238s-5.719,2.437-12.746-3.237c-.461-7.252-2.313-14.789-3.119-20.629-.435-3.155-2.126-13.427-2.437-14.976-.209-1.036-1.455-9.485-1.27-11.031a6.1,6.1,0,0,0-.593-.572s-.153,18.038.006,20.895,1.838,29.294,2.678,32.346c-.763,1.742-12.39.652-14.13-2.058-1.434-2.236-1.575-13.406-.7-19.553.888-6.251,3.816-30.149,4.079-32.283.2-1.63.515-12.21,3.039-14.709C1173.511,524.358,1185.9,531.3,1185.9,531.3Z" transform="translate(-1122.902 -471.407)" fill="#2dc8e2" fill-rule="evenodd"/><path d="M1179.922,850.472s-7.845,2.781-13.783-3.138c-1.075-1.811,3.775,2.947,7.246,3.174A38.542,38.542,0,0,0,1179.922,850.472Z" transform="translate(-1124.088 -730.96)" fill="#00a1c6" fill-rule="evenodd"/><path d="M1271.315,837.2a12.234,12.234,0,0,0,9.916,4.106c1.612-.136,2.127-.278,2.048-.423-.24-.441-5.263.361-7.435-.9C1272.988,838.328,1271.315,837.2,1271.315,837.2Z" transform="translate(-1209.145 -723.104)" fill="#00a1c6" fill-rule="evenodd"/><path d="M1172.522,393.843s5.134-9.929,6.368-10.37,6.431-2.031,9.057-1.727a37.868,37.868,0,0,1,8.222,1.465l2.325.817s3.134,1.008,3.808,3.406a72.789,72.789,0,0,0,3.077,7.946c.275.5-5.67,4.747-5.67,4.747s-1.641,4.986-3.277,7.277a26.2,26.2,0,0,0-2.183,3.605s-3.261.249-14.5-5.192c.417-2.236.652-5.221.929-8-.419.77-.445.661-.8,1.348A11.767,11.767,0,0,0,1172.522,393.843Z" transform="translate(-1129.366 -355.28)" fill="#00a1c6" fill-rule="evenodd"/><path d="M1183.8,444.4s-.685-4.22-6.617-4.971c-.732-.092.357,0,.155-.07C1175.9,438.862,1184.264,439.733,1183.8,444.4Z" transform="translate(-1132.922 -401.734)" fill="#00a1c6" fill-rule="evenodd"/><path d="M1211.085,389.62s4.659.364,5.031,5.825a9.421,9.421,0,0,1-.394,3.037S1218.681,390.09,1211.085,389.62Z" transform="translate(-1160.507 -361.669)" fill="#00a1c6" fill-rule="evenodd"/><path d="M1216.484,436.806a4.634,4.634,0,0,0-.74.81c-1.058,1.453-2.727,4.2-3.455,5.4C1211.445,444.391,1215.233,436.888,1216.484,436.806Z" transform="translate(-1161.381 -399.774)" fill="#00a1c6" fill-rule="evenodd"/><path d="M1230.311,443.718a15.153,15.153,0,0,1-2.231.1c-.08-.106,1.467.583,1.9.256S1230.311,443.718,1230.311,443.718Z" transform="translate(-1174.228 -405.356)" fill="#00a1c6" fill-rule="evenodd"/><path d="M1306.624,410.461a23.867,23.867,0,0,1,1.3,12.779C1307.172,425,1311.027,416.7,1306.624,410.461Z" transform="translate(-1237.658 -378.499)" fill="#00a1c6" fill-rule="evenodd"/><path d="M1314.641,413.347s-.338,2.727-.708,2.642S1314.347,415.052,1314.641,413.347Z" transform="translate(-1243.482 -380.83)" fill="#00a1c6" fill-rule="evenodd"/><path d="M1252.691,383.767s2.227,1.68,1.5,3.346-2.434,2.11-4.377,1.356-4.381-3.91-3.469-5.493-2.864,1.993,2.8,5.437c1.846,1.122,3.976.611,4.57-.1a2.905,2.905,0,0,0,.789-1.946A3.321,3.321,0,0,0,1252.691,383.767Z" transform="translate(-1188.658 -355.993)" fill="#00a1c6" fill-rule="evenodd"/><path d="M1251.1,384.821a3.8,3.8,0,0,0,1.45,3.14C1254.2,389.307,1249.705,386.432,1251.1,384.821Z" transform="translate(-1192.6 -357.794)" fill="#97ab54" fill-rule="evenodd"/><path d="M1319.568,460.923s-3.82.469-4.954,1.756S1315.478,460.57,1319.568,460.923Z" transform="translate(-1243.857 -419.229)" fill="#00a1c6" fill-rule="evenodd"/><path d="M1337.335,456.033c-3.392,2.326-12.034,8.619-13.8,9.352-2.26.938-5.358,2.147-6.422,1.446-1.3-.854-4.927-5.062-4.908-5.44a34.475,34.475,0,0,0,.13-3.845,15.584,15.584,0,0,1,5.5-4.752s2.221,3.7,2.411,3.91c.216.24.623.342,1.884-.443a63.353,63.353,0,0,1,9.7-4Z" transform="translate(-1242.164 -412.258)" fill="#f8f7e6" fill-rule="evenodd"/><path d="M1344.051,489h0c-.441,1.221-.092-2.62,2.384-2.085A3.022,3.022,0,0,0,1344.051,489Z" transform="translate(-1267.751 -440.194)" fill="#ecb2c5" fill-rule="evenodd"/><path d="M1316.471,458.508c.184.213-2.119-3.5-2.119-3.5a10.923,10.923,0,0,0-5.677,3.186c-.046.927-.709,3.8-.793,4.184-.08.37,4.536,6.31,5.508,6.412a17.421,17.421,0,0,1-1.75-3.254c-1.253-2.908-2.255-6.7-.065-8.5a2.508,2.508,0,0,1,3.639.035,17.8,17.8,0,0,1,1.28,1.469Z" transform="translate(-1238.673 -414.475)" fill="#ecb2c5" fill-rule="evenodd"/><path d="M1251.918,289.59s4.367-12.567,4.069-13.423c-.662-.137-1.1-1.656-1.037-2.416.046-.564.456-2.346,1.438-2.038a1.109,1.109,0,0,1,.79,1.392c-.118.707.406-.293.406-.293l.29-1.675.626-.2.557-3.253,4.486-.994,4.672,1.76-.078.755s.7,7.912-1.81,13.9c-1.961,3.444-7.192,2.085-7.513,1.746-.182.649-1.434,4.106-1.337,5.784.687,1.225.96,2.738-.34,3.356C1255.716,294.667,1250.853,291.439,1251.918,289.59Z" transform="translate(-1193.359 -262.403)" fill="#f8f7e6" fill-rule="evenodd"/><path d="M1271.433,337.528s.791,3.655,3.2,4.562c-.437,1.461-.624,2.151-.884,2.987s-.9,4.583-.847,4.3c.847-4.66-1.444-10.494-1.444-10.494S1271.275,337.4,1271.433,337.528Z" transform="translate(-1209.189 -319.597)" fill="#ecb2c5" fill-rule="evenodd"/><path d="M1286.9,288.644c-.058-.427-1.927-1.074-1.927-1.074l.114-.918a21.8,21.8,0,0,1,1.948,1.2s-.075,1.218-.134.791Zm-2.641,3.7a3.7,3.7,0,0,1-.073-2.822,3.326,3.326,0,0,0-.217,2.607c.026.13-.746-.123-.746-.123s-.214.185-.109.265,1.226.391,1.145.071Zm-2.794-2.837h0c-.085.368-.327.625-.545.576s-.322-.391-.238-.756.327-.625.545-.575.322.388.238.755Zm-2.151-2.311,3.661.167c.13-.285.057-.606.222-.874a12.713,12.713,0,0,0-3.478.125Zm-4.3,1.328h0c.156,0,.242.668.278,1.017-.093-.419-.456-1.022-.277-1.017Zm.3,1.229a.665.665,0,0,0-.018-.211c.012.127.019.212.019.212Zm9.979.033h0c.216.05.321.391.236.756s-.327.625-.544.575-.321-.391-.236-.756.327-.626.542-.576Z" transform="translate(-1212.099 -278.318)" fill="#151e21" fill-rule="evenodd"/><path d="M1163.463,449.947s-.508.913-1.131,2.036a5.928,5.928,0,0,0-1.741-3.74c-2.079-2.021-6.828,4.516-8.4,4.728a33.93,33.93,0,0,1,4.028-8.3A7.971,7.971,0,0,1,1163.463,449.947Z" transform="translate(-1112.95 -406.124)" fill="#f8f7e6" fill-rule="evenodd"/><path d="M1194.705,500.418s-4.03,8.877-3.918,12.193,14.307,5.41,17.1,4.414c0,0-.632-5.841,1.112-10.151Z" transform="translate(-1144.113 -451.143)" fill="#00a1c6" fill-rule="evenodd"/><path d="M1167.365,482.647c-.162.381-.913.391-1.884.022-.727-.274-1.575-2.408-1.575-2.408s-.261,4.464.381,6.237.285,2.693-.613,1.768c-1.333-1.374-3.169-1.184-4.452-2.868-1.231-1.615-1.753-6.674-1.794-7.087-1.158-2.4-6.034-12.525-8.349-17.82-2.637-6.034,4.134-15.821,4.134-15.821a7.97,7.97,0,0,1,7.243,5.279s-3.056,5.476-3.366,6.17a1.181,1.181,0,0,0,.075.806c2.781,4.224,4,17.714,4.121,19.112a6.788,6.788,0,0,0,1.975,1.283c1.923.9,1.825,2.159,2.452,3.576S1167.526,482.267,1167.365,482.647Z" transform="translate(-1109.943 -406.124)" fill="#f8f7e6" fill-rule="evenodd"/><path d="M1179.905,500.588a8.741,8.741,0,0,0-2.992-1.51c-1-.05,1.2-.638,2.39.13a2.292,2.292,0,0,1,.609.514Z" transform="translate(-1132.707 -449.849)" fill="#ecb2c5" fill-rule="evenodd"/><path d="M1163.463,449.947s-.508.913-1.131,2.036a5.928,5.928,0,0,0-1.741-3.74c-2.079-2.021-6.828,4.516-8.4,4.728a33.93,33.93,0,0,1,4.028-8.3A7.971,7.971,0,0,1,1163.463,449.947Z" transform="translate(-1112.95 -406.124)" fill="#ecb2c5" fill-rule="evenodd"/><path d="M1220.417,654.847a14.36,14.36,0,0,1-1.016-3.488s-.366,0-.145,1.068a6.682,6.682,0,0,0,1.01,2.3Z" transform="translate(-1167.048 -573.034)" fill="#ecb2c5" fill-rule="evenodd"/><path d="M1212.121,651.471s.238,2.048,1.128,2.635a7.444,7.444,0,0,1-.956-2.659Z" transform="translate(-1161.343 -573.106)" fill="#ecb2c5" fill-rule="evenodd"/><path d="M1206.128,649.426a6.627,6.627,0,0,0,.812,2.254l.207.126a4.777,4.777,0,0,1-.823-2.4S1206.319,649.168,1206.128,649.426Z" transform="translate(-1156.504 -571.374)" fill="#ecb2c5" fill-rule="evenodd"/><path d="M1167.394,482.668c-.162.381-.913.391-1.884.022-.727-.274-1.575-2.408-1.575-2.408s-.261,4.464.381,6.237.285,2.692-.613,1.767a3.811,3.811,0,0,0-.363-.326l-.025-.019c-.037-.031-.075-.059-.115-.086l-.012-.01a6.618,6.618,0,0,0-1.312-.7h0c-.42-.18-.847-.348-1.257-.573h0l-.2-.117h-.005a4.074,4.074,0,0,1-1.156-1.032c-1.231-1.615-1.753-6.674-1.794-7.087l-.311-.645c-1.545-3.209-5.89-12.266-8.036-17.175-.973-2.223-.667-4.953.106-7.52.021-.065.042-.137.065-.205s.036-.117.056-.176c.031-.1.065-.2.095-.289l.05-.147c.043-.126.087-.251.13-.377.016-.045.032-.09.049-.134.212-.578.442-1.142.68-1.68q.11-.25.221-.491l.008-.02.1-.22.056-.118q.214-.45.427-.868c.065-.122.126-.243.186-.361l.109-.207c.11-.205.216-.4.322-.592l.051-.093c.226-.4.438-.767.626-1.08.022-.035.043-.07.065-.105l.062-.1c.025-.043.05-.083.075-.124l.122-.2.05-.081c.009-.013.017-.027.025-.039l.037-.059.1-.151.025-.04c.108-.167.183-.276.215-.327l.006-.007.012-.018a7.97,7.97,0,0,1,7.243,5.279s-.065.114-.173.31c-.007.012-.014.025-.02.037s-.031.055-.048.086l-.043.075c-.1.179-.22.4-.357.642l-.046.082-.445.8c-.837,1.513-1.881,3.413-2.177,4.014-.025.049-.044.089-.058.119a1.094,1.094,0,0,0,.052.746c.015.039.025.061.025.061,2.607,3.965,3.846,16.089,4.087,18.722.016.173.027.3.035.391a6.786,6.786,0,0,0,1.974,1.283c1.922.9,1.825,2.159,2.452,3.576S1167.556,482.288,1167.394,482.668Z" transform="translate(-1109.972 -406.145)" fill="#f8f7e6" fill-rule="evenodd"/><path d="M1179.905,500.588a8.741,8.741,0,0,0-2.992-1.51c-1-.05,1.2-.638,2.39.13a2.292,2.292,0,0,1,.609.514Z" transform="translate(-1132.707 -449.849)" fill="#ecb2c5" fill-rule="evenodd"/><path d="M1163.463,449.947s-.508.913-1.131,2.036a5.928,5.928,0,0,0-1.741-3.74c-2.079-2.021-6.828,4.516-8.4,4.728a33.93,33.93,0,0,1,4.028-8.3A7.971,7.971,0,0,1,1163.463,449.947Z" transform="translate(-1112.95 -406.124)" fill="#ecb2c5" fill-rule="evenodd"/><path d="M1220.415,654.847l-.025-.019-.115-.086-.012-.01a6.63,6.63,0,0,1-1.01-2.305c-.222-1.065.145-1.067.145-1.067A14.343,14.343,0,0,0,1220.415,654.847Z" transform="translate(-1167.046 -573.035)" fill="#ecb2c5" fill-rule="evenodd"/><path d="M1213.252,654.106h0c-.889-.586-1.127-2.634-1.127-2.634l.173-.023A7.425,7.425,0,0,0,1213.252,654.106Z" transform="translate(-1161.347 -573.106)" fill="#ecb2c5" fill-rule="evenodd"/><path d="M1207.146,651.81h0l-.2-.117h-.007a6.627,6.627,0,0,1-.812-2.255c.191-.261.2-.027.2-.027A4.829,4.829,0,0,0,1207.146,651.81Z" transform="translate(-1156.502 -571.384)" fill="#ecb2c5" fill-rule="evenodd"/><path d="M1188.168,587.383c-1.223.12-4.012.5-5.236,1.591a.586.586,0,0,0-.13.7,9.875,9.875,0,0,0,.943,1.557,15.669,15.669,0,0,1,1.389,2.627l4.237-2.216a23.825,23.825,0,0,1-.554-3.725.591.591,0,0,0-.643-.534h-.006Z" transform="translate(-1137.616 -521.368)" fill="#67ebf9" fill-rule="evenodd"/><path d="M1194.756,594.381s-.562-.007-1.117-1.8c-.545-1.756-4.1-.5-4.228-.456.113-.065,3.2-1.817,4.814-1.239A22.918,22.918,0,0,0,1194.756,594.381Z" transform="translate(-1143.004 -524.109)" fill="#67ebf9" fill-rule="evenodd"/><path d="M1203.676,612.645c-.162.381-.913.391-1.884.022-.727-.274-1.575-2.408-1.575-2.408s-.261,4.464.381,6.237.286,2.692-.613,1.767a3.86,3.86,0,0,0-.363-.327l-.025-.019-.115-.086-.012-.01a6.614,6.614,0,0,0-1.312-.7h0c-.421-.18-.847-.348-1.257-.574h0l-.2-.117h-.005a4.072,4.072,0,0,1-1.156-1.032c-1.231-1.615-1.753-6.673-1.794-7.087l-.311-.645,4.136-2.021c.016.173.027.3.035.391a6.788,6.788,0,0,0,1.974,1.283c1.923.9,1.825,2.159,2.452,3.576S1203.837,612.266,1203.676,612.645Z" transform="translate(-1146.254 -536.122)" fill="#67ebf9" fill-rule="evenodd"/><g transform="translate(49.624 77.932)"><path d="M1220.415,654.847l-.025-.019-.115-.086-.012-.01a6.63,6.63,0,0,1-1.01-2.305c-.222-1.065.145-1.067.145-1.067A14.343,14.343,0,0,0,1220.415,654.847Z" transform="translate(-1216.67 -650.967)" fill="#00a1c6" fill-rule="evenodd"/><path d="M1213.252,654.106h0c-.889-.586-1.127-2.634-1.127-2.634l.173-.023A7.425,7.425,0,0,0,1213.252,654.106Z" transform="translate(-1210.97 -651.038)" fill="#00a1c6" fill-rule="evenodd"/><path d="M1207.146,651.811h0l-.2-.117h-.007a6.627,6.627,0,0,1-.812-2.254c.191-.261.2-.027.2-.027A4.829,4.829,0,0,0,1207.146,651.811Z" transform="translate(-1206.126 -649.316)" fill="#00a1c6" fill-rule="evenodd"/></g><path d="M1194.756,594.381s-.562-.007-1.117-1.8c-.545-1.756-4.1-.5-4.228-.456.113-.065,3.2-1.817,4.814-1.239A22.918,22.918,0,0,0,1194.756,594.381Z" transform="translate(-1143.004 -524.109)" fill="#00a1c6" fill-rule="evenodd" opacity="0.28" style="isolation:isolate"/><path d="M1412.246,437.212a17.994,17.994,0,0,0,5.029-2.632c3.3-2.868,6.944.768,7.963.7s1.331,1.343-.865,1.865l3.4,1.369-4.085,4.127s-4.2-3.743-5.571-1.781Z" transform="translate(-1322.952 -397.085)" fill="#f8f7e6"/><path d="M1480.358,457.312a.811.811,0,0,1-1.03-.219c-.313-.327-1.808-1.255-1.936-2.447A5.91,5.91,0,0,0,1480.358,457.312Z" transform="translate(-1375.561 -414.181)" fill="#ecb2c5"/><path d="M1471.939,465.2c-.241-.435-.338-.837-.16-1.092.1-.144.308-.169.567-.121C1471.518,464.265,1471.915,465.147,1471.939,465.2Z" transform="translate(-1370.954 -421.703)" fill="#ecb2c5"/><path d="M1467.1,448.861a3.907,3.907,0,0,1-3.69.048s1.614,1.028,2.568.62S1466.526,449.353,1467.1,448.861Z" transform="translate(-1364.27 -409.509)" fill="#ecb2c5"/><path d="M1450.088,448.655a2.814,2.814,0,0,1,1.369,3A7.386,7.386,0,0,0,1450.088,448.655Z" transform="translate(-1353.511 -409.343)" fill="#ecb2c5"/><path d="M1445.522,461.831a3.683,3.683,0,0,1-.335-1.7s-.3.292-.13,1.029l.164.737Z" transform="translate(-1349.408 -418.611)" fill="#ecb2c5"/><path d="M1442.859,464.213a3.464,3.464,0,0,1-.368-1.351,1.463,1.463,0,0,0,.022,1.157c.266.707.119.368.119.368Z" transform="translate(-1347.289 -420.815)" fill="#ecb2c5"/><path d="M1469.318,471.528s-1.765-1.578-2.322-1.211.123,1.66.8,2.371,1.165.266,1.5-.075S1469.988,472.071,1469.318,471.528Z" transform="translate(-1366.999 -426.791)" fill="#f8f7e6"/><path d="M1469.295,475c-.333.34-.825.782-1.5.075a3.68,3.68,0,0,1-1-1.856c.17.448.757,1.821,1.629,2.056,0,0,.182.082.532-.147s.747-.652.7-.837C1469.8,474.576,1469.538,474.752,1469.295,475Z" transform="translate(-1367.004 -429.177)" fill="#ecb2c5"/><path d="M1466.839,471.152c-.109-.366-.092-.681.141-.835a.642.642,0,0,1,.559.019A.667.667,0,0,0,1466.839,471.152Z" transform="translate(-1366.986 -426.791)" fill="#ecb2c5"/><path d="M1488.873,464.274l-1.667,2.666a.108.108,0,0,0-.011.091h0a.108.108,0,0,0,.136.07.111.111,0,0,0,.059-.047l1.667-2.667a.108.108,0,0,0-.035-.149.109.109,0,0,0-.081-.013h0a.109.109,0,0,0-.068.049Z" transform="translate(-1383.472 -421.913)" fill="#e24b27"/><path d="M1490.792,469.894l.8-1.3-.208-.146-.812,1.3Z" transform="translate(-1386.202 -425.324)" fill="#a82309"/><path d="M1492.526,469.2l4.8,2.914-.847,1.388-4.748-3Z" transform="translate(-1387.138 -425.938)" fill="#fde48b"/><path d="M1515.2,483.1l-.844,1.382.392.248.847-1.388Z" transform="translate(-1405.412 -437.158)" fill="#e24b27"/><path d="M1505.3,476.96l-.8,1.364,1.9,1.2.844-1.382Z" transform="translate(-1397.453 -432.2)" fill="#ecb2c5"/><path d="M1492.369,473.734l4.364,2.74.212-.347-4.4-2.674Z" transform="translate(-1387.655 -429.367)" fill="#fde48b"/><path d="M1517.7,485.5l-.57.934.355.237.549-.951Z" transform="translate(-1407.651 -439.094)" fill="#a82309"/><path d="M1480.1,451.677s-2.6-1.989-2.741-.645,1.6,2.408,1.938,2.766a.776.776,0,0,0,1.4-.3A1.384,1.384,0,0,0,1480.1,451.677Z" transform="translate(-1375.525 -410.885)" fill="#f8f7e6"/><path d="M1480.358,457.312a.811.811,0,0,1-1.03-.219c-.313-.327-1.808-1.255-1.936-2.447A5.91,5.91,0,0,0,1480.358,457.312Z" transform="translate(-1375.561 -414.181)" fill="#ecb2c5"/><path d="M1474.548,465.034s-2.341-1.538-2.767-.927.723,2.068,1.655,2.791,1.265.033,1.475-.483S1475.416,465.545,1474.548,465.034Z" transform="translate(-1370.955 -421.705)" fill="#f8f7e6"/><path d="M1475.237,470c-.21.518-.543,1.208-1.475.484a5.521,5.521,0,0,1-1.672-2.085c.332.521,1.417,2.107,2.379,2.178,0,0,.212.056.48-.327s.512-1.021.4-1.238C1475.587,469.327,1475.389,469.616,1475.237,470Z" transform="translate(-1371.279 -425.284)" fill="#ecb2c5"/><path d="M1471.939,465.2c-.241-.435-.338-.837-.16-1.092.1-.144.308-.169.567-.121C1471.518,464.265,1471.915,465.147,1471.939,465.2Z" transform="translate(-1370.954 -421.703)" fill="#ecb2c5"/><path d="M1520.145,488.912l4.519,2.817.091-.131-4.523-2.838Z" transform="translate(-1410.085 -441.728)" fill="#e24b27"/><path d="M1427.609,438.5l-4.083,4.131s-3.836-3.324-5.417-2.04a1.325,1.325,0,0,0-.255.276,28.35,28.35,0,0,0-2.4,2.142c-.823.892-1.321.619-1.321.619-2.411-1.273-2.085-6.387-2.085-6.387.011-.421.683-.587,1-.646.1-.018.17-.025.17-.025a23.515,23.515,0,0,0,2.5-1.032,9.489,9.489,0,0,0,1.381-.973,4.493,4.493,0,0,1,4.889-.682c1.429.544,2.574,1.417,3.078,1.384,1.019-.065,1.331,1.343-.866,1.865Z" transform="translate(-1322.783 -397.074)" fill="#67ebf9"/><path d="M1442.51,470.5l.018.056s-.1.082-.274.221A1.32,1.32,0,0,1,1442.51,470.5Z" transform="translate(-1347.185 -426.982)" fill="#67ebf9"/><path d="M1464.7,455.044s-.084,1.33-.789,1.585-.065,1.773,1.161,1.849,3.266-1.434,2.691-2.5S1465.172,453.89,1464.7,455.044Z" transform="translate(-1364.433 -414.09)" fill="#00a1c6" opacity="0.28" style="isolation:isolate"/><path d="M1477.826,459.879l-3.233-2.038-.491.922,3.068,2.171Z" transform="translate(-1372.903 -416.761)" fill="#e24b27"/><path d="M1480.358,457.312a.811.811,0,0,1-1.03-.219c-.313-.327-1.808-1.255-1.936-2.447A5.91,5.91,0,0,0,1480.358,457.312Z" transform="translate(-1375.561 -414.181)" fill="#ecb2c5"/><path d="M1471.939,465.2c-.241-.435-.338-.837-.16-1.092.1-.144.308-.169.567-.121C1471.518,464.265,1471.915,465.147,1471.939,465.2Z" transform="translate(-1370.954 -421.703)" fill="#ecb2c5"/><path d="M1471.589,453.846l-1.188,2.313-.43-.253,1.331-2.191Z" transform="translate(-1369.567 -413.428)" fill="#e24b27"/><path d="M1469.318,471.528s-1.765-1.578-2.322-1.211.123,1.66.8,2.371,1.165.266,1.5-.075S1469.988,472.071,1469.318,471.528Z" transform="translate(-1366.999 -426.791)" fill="#67ebf9"/><path d="M1480.1,451.677s-2.6-1.989-2.741-.645,1.6,2.408,1.938,2.766a.776.776,0,0,0,1.4-.3A1.384,1.384,0,0,0,1480.1,451.677Z" transform="translate(-1375.525 -410.885)" fill="#67ebf9"/><path d="M1474.548,465.034s-2.341-1.538-2.767-.927.723,2.068,1.655,2.791,1.265.033,1.475-.483S1475.416,465.545,1474.548,465.034Z" transform="translate(-1370.955 -421.705)" fill="#67ebf9"/><path d="M1467.1,448.861a3.907,3.907,0,0,1-3.69.048s1.614,1.028,2.568.62S1466.526,449.353,1467.1,448.861Z" transform="translate(-1364.27 -409.509)" fill="#00a1c6"/><path d="M1450.088,448.655a2.814,2.814,0,0,1,1.369,3A7.386,7.386,0,0,0,1450.088,448.655Z" transform="translate(-1353.511 -409.343)" fill="#00a1c6"/><path d="M1469.295,475c-.333.34-.825.782-1.5.075a3.68,3.68,0,0,1-1-1.856c.17.448.757,1.821,1.629,2.056,0,0,.182.082.532-.147s.747-.652.7-.837C1469.8,474.576,1469.538,474.752,1469.295,475Z" transform="translate(-1367.004 -429.177)" fill="#00a1c6"/><path d="M1466.839,471.152c-.109-.366-.092-.681.141-.835a.642.642,0,0,1,.559.019A.667.667,0,0,0,1466.839,471.152Z" transform="translate(-1366.986 -426.791)" fill="#00a1c6"/><path d="M1480.358,457.312a.811.811,0,0,1-1.03-.219c-.313-.327-1.808-1.255-1.936-2.447A5.91,5.91,0,0,0,1480.358,457.312Z" transform="translate(-1375.561 -414.181)" fill="#00a1c6"/><path d="M1475.237,470c-.21.518-.543,1.208-1.475.484a5.521,5.521,0,0,1-1.672-2.085c.332.521,1.417,2.107,2.379,2.178,0,0,.212.056.48-.327s.512-1.021.4-1.238C1475.587,469.327,1475.389,469.616,1475.237,470Z" transform="translate(-1371.279 -425.284)" fill="#00a1c6"/><path d="M1471.939,465.2c-.241-.435-.338-.837-.16-1.092.1-.144.308-.169.567-.121C1471.518,464.265,1471.915,465.147,1471.939,465.2Z" transform="translate(-1370.954 -421.703)" fill="#00a1c6"/><path d="M1445.24,461.683a5.271,5.271,0,0,1-.321-1.271c.019-.353-.184.6.019.945S1445.24,461.683,1445.24,461.683Z" transform="translate(-1349.278 -418.774)" fill="#00a1c6"/><path d="M1441.8,464.417s-.612-.331-.646-.708.065.776.437.854S1441.8,464.417,1441.8,464.417Z" transform="translate(-1346.292 -421.438)" fill="#00a1c6"/><path d="M1446.392,471.416s-.023.018-.053.04C1446.3,471.458,1446.275,471.432,1446.392,471.416Z" transform="translate(-1350.457 -427.723)" fill="#ecb2c5" fill-rule="evenodd"/><path d="M1285.575,314.334a.737.737,0,0,0-.284-.737,7.355,7.355,0,0,0-2.921-1.474,30,30,0,0,1-5.481-.694s-2.032,5.7-3.515,6.161c0,0-.847,3.3,5.691,4.147C1284.879,322.489,1284.6,319.188,1285.575,314.334Z" transform="translate(-1210.78 -298.526)" fill="#67ebf9" fill-rule="evenodd"/><path d="M1297.913,317.544a8.279,8.279,0,0,0,2.748.28,4.216,4.216,0,0,1,3.051.829,4.346,4.346,0,0,0,1.225.663,6.554,6.554,0,0,1-1.817-.634c-1.092-.537-1.165-.388-3.044-.574S1297.913,317.544,1297.913,317.544Z" transform="translate(-1230.624 -303.465)" fill="#00a1c6" opacity="0.28" style="isolation:isolate"/><path d="M1293.439,321.608a9.519,9.519,0,0,0,3.312.6,4.207,4.207,0,0,1,3.051.829,4.247,4.247,0,0,0,1.225.663,6.525,6.525,0,0,1-1.817-.634c-1.093-.538-1.164-.387-3.045-.573A5.319,5.319,0,0,1,1293.439,321.608Z" transform="translate(-1227.011 -306.747)" fill="#00a1c6" opacity="0.28" style="isolation:isolate"/><path d="M1282.975,339.557s2.379,1.683,3.66,1.637a4.537,4.537,0,0,1,3.143.871c.855.672,1.26.568,1.26.568a3.659,3.659,0,0,1-1.853-.586c-1.048-.623-1.3-.285-3.156-.617A5.529,5.529,0,0,1,1282.975,339.557Z" transform="translate(-1218.561 -321.242)" fill="#00a1c6" opacity="0.28" style="isolation:isolate"/><path d="M1290.642,326.945a11.667,11.667,0,0,0,3.632.648,4.207,4.207,0,0,1,3.051.829,4.254,4.254,0,0,0,1.224.663,6.529,6.529,0,0,1-1.817-.633c-1.093-.538-1.165-.387-3.044-.573A7.454,7.454,0,0,1,1290.642,326.945Z" transform="translate(-1224.752 -311.057)" fill="#00a1c6" opacity="0.28" style="isolation:isolate"/><path d="M1288.383,331.29s2.391,1.192,3.666,1.047a4.209,4.209,0,0,1,3.051.829,4.258,4.258,0,0,0,1.225.663,6.538,6.538,0,0,1-1.817-.633c-1.093-.537-1.165-.388-3.045-.574A5.618,5.618,0,0,1,1288.383,331.29Z" transform="translate(-1222.928 -314.566)" fill="#00a1c6" opacity="0.28" style="isolation:isolate"/><path d="M1285.8,336.187s2.524,1.4,3.8,1.258a4.214,4.214,0,0,1,3.051.829,4.335,4.335,0,0,0,1.225.663,6.557,6.557,0,0,1-1.817-.634c-1.093-.537-1.165-.388-3.044-.573A5.8,5.8,0,0,1,1285.8,336.187Z" transform="translate(-1220.844 -318.52)" fill="#00a1c6" opacity="0.28" style="isolation:isolate"/><path d="M1282.18,302.2l-2.29-2.2,0,.318,2.11,2.353Z" transform="translate(-1216.07 -289.297)" fill="#00a1c6" fill-rule="evenodd"/><path d="M1273.286,315.779l.046,5.323.4-.2-.336-5.024-.03-.072Z" transform="translate(-1210.737 -302.04)" fill="#00a1c6" fill-rule="evenodd"/><path d="M1426.265,433.892a3.118,3.118,0,0,1-.567-.036c-2.607-.377-4.635,1.972-6.669,2.595s-.317,5.31-.317,5.31c-1.407-.857-1.387-5.157-1.387-5.157.1-.018.17-.025.17-.025a23.445,23.445,0,0,0,2.5-1.032,9.472,9.472,0,0,0,1.381-.973A4.491,4.491,0,0,1,1426.265,433.892Z" transform="translate(-1327.054 -397.079)" fill="#00a1c6" fill-rule="evenodd" opacity="0.28" style="isolation:isolate"/><path d="M1286.147,251.254s1.783-.331,2-3.206-3.733-4.445-6.955-3.251-3.715,1.809-5.419,2.151-3.51.24-3.29,3.492l.22,3.252.339.019s.857-.108.862,1.311-.014,1.135-.014,1.135a1.54,1.54,0,0,0,.422.08c.079-.025.173-2.437.574-2.864s.572-.183.787-.745.45-1.942,1.108-2.281,6.169,1.3,8.147.961a16.947,16.947,0,0,0,.065,3.065A2.621,2.621,0,0,0,1286.147,251.254Z" transform="translate(-1210.072 -244.393)" fill="#151e21" fill-rule="evenodd"/><path d="M1337.988,257.572a4.4,4.4,0,0,1-2.392,3.416,2.744,2.744,0,0,0,2.11-1.291C1338.239,258.541,1338.221,258.223,1337.988,257.572Z" transform="translate(-1261.054 -255.036)" fill="#3a2115" fill-rule="evenodd" opacity="0.46" style="isolation:isolate"/><path d="M1333.806,257.334a2.843,2.843,0,0,1-1.787,3.065,2.491,2.491,0,0,0,1.781-1.292A2.174,2.174,0,0,0,1333.806,257.334Z" transform="translate(-1258.166 -254.843)" fill="#3a2115" fill-rule="evenodd" opacity="0.46" style="isolation:isolate"/><path d="M1229.062,603.478a9.06,9.06,0,0,0,2.72,1.322c.733-.01.05.5-.871.012s-1.271-.344-1.909-1.148S1229.062,603.478,1229.062,603.478Z" transform="translate(-1174.758 -534.185)" fill="#00a1c6" fill-rule="evenodd"/><path d="M1236.692,612.926a8.4,8.4,0,0,1,1.94,2.238c.478,1.046-.514-.248-1.034-.879S1236.366,613.139,1236.692,612.926Z" transform="translate(-1181.119 -541.998)" fill="#00a1c6" fill-rule="evenodd"/><path d="M1046.582,528.422l12.289-12.289s3.818-3.87,8.252-2.992,27.75,3.508,27.75,3.508,4.424,1.445,2.75,5.445-26.534,30.483-26.534,30.483-4.259,4.065-7.933,4.065H952.7s-4.416,0-4.416-5.617c0-2.81.837-4.842,6.337-4.842s91.1-3.8,91.1-3.8Z" transform="translate(-948.288 -461.313)" fill="#6a465c"/><path d="M1224.835,522.1c-1.675,4-26.533,30.484-26.533,30.484s-4.26,4.065-7.933,4.065H1111.48c-1.907-.1-5.659-.8-5.659-4.722,0-5.26,6.744-4.405,6.744-4.405l3.464-2.66c25.893-1.093,56.914-2.472,56.914-2.472l.847-13.963,12.289-12.289s3.819-3.87,8.252-2.992,27.756,3.508,27.756,3.508S1226.509,518.1,1224.835,522.1Z" transform="translate(-1075.502 -461.314)" fill="#909ea7"/><path d="M1531.9,518.156a20.428,20.428,0,0,1-1.434,3.473c-.762,1.434-6.187,2.151-8.226,2.418s-2.625-.4-3.7-.356-.9,3.259-.9,3.259c2.466,2.763,2.964,7.435,2.964,7.435s-6.595-.38-6.591-.366-9.646-3.511-10.45-4.584-1.39-2.065,1.434-4.572,7.344-1.215,7.344-1.215l2.793-3.318,3.194-3.893C1521.859,516.939,1527.145,517.591,1531.9,518.156Z" transform="translate(-1396.159 -464.079)" fill="#4a2e40"/><path d="M1224.827,522.1c-1.674,4-26.533,30.484-26.533,30.484s-4.26,4.065-7.933,4.065h-77.805a9.039,9.039,0,0,1-1.085,0c-1.907-.1-5.66-.8-5.66-4.722,0-5.26,6.745-4.405,6.745-4.405l3.463-2.66c25.895-1.093,56.916-2.472,56.916-2.472l.847-13.963,12.289-12.289s3.819-3.87,8.252-2.992,27.756,3.508,27.756,3.508S1226.5,518.1,1224.827,522.1Z" transform="translate(-1075.493 -461.314)" fill="#6a465c"/><path d="M1224.827,537.34c-1.674,4-26.533,30.484-26.533,30.484s-4.26,4.065-7.933,4.065h-77.805a9.039,9.039,0,0,1-1.085,0c-1.907-.1-5.66-.8-5.66-4.722,0-5.26,6.745-4.405,6.745-4.405l3.463-2.66c25.895-1.093,56.916-2.472,56.916-2.472l.29-4.758c6.039-.257,9.947-.427,9.947-.427l10.324,7.342s2.346,1.173,5.279-2.346a56.44,56.44,0,0,0,5.684-7.639c.7-1.357,12.754-19.653,17.943-17.776.106.046.234.106.376.179h0c.155.08.327.177.506.293A3.646,3.646,0,0,1,1224.827,537.34Z" transform="translate(-1075.493 -476.557)" fill="#4a2e40"/><path d="M1531.9,518.156a20.428,20.428,0,0,1-1.434,3.473c-.762,1.434-6.187,2.151-8.226,2.418s-2.625-.4-3.7-.356-.9,3.259-.9,3.259c2.466,2.763,2.964,7.435,2.964,7.435s-6.595-.38-6.591-.366-9.646-3.511-10.45-4.584-1.39-2.065,1.434-4.572,7.344-1.215,7.344-1.215l2.793-3.318,3.194-3.893C1521.859,516.939,1527.145,517.591,1531.9,518.156Z" transform="translate(-1396.159 -464.079)" fill="#4a2e40"/><g transform="translate(101.29 59.968)"><path d="M1474.575,561.186s4.8-2.861,6.2-3.65a8.811,8.811,0,0,1,7.435-.208,16.8,16.8,0,0,1,2.533.766c2.256.894,1.717-.065,1.82,1.9.065.452,1.173-.014,1.173-.014a7.888,7.888,0,0,1,2.886,4.067c.81,2.412-.662,5.693-2.973,7.393-2.043,1.5-3.324,2.251-3.324,2.251a10.306,10.306,0,0,0-4.593,1.375,8.4,8.4,0,0,1-6.342-1.979c-3.244-2.592-1.573-6.986-1.573-6.986a4.016,4.016,0,0,0-.76-2.564A11.651,11.651,0,0,0,1474.575,561.186Z" transform="translate(-1474.575 -556.488)" fill="#00a1c6" fill-rule="evenodd"/><path d="M1512.063,561.822a1.6,1.6,0,0,1-.662-1.06,4.313,4.313,0,0,1,.709-1.936,7.235,7.235,0,0,1,3.491-2.813,5.6,5.6,0,0,1,3.839.912c1.434.894,2.314.348,2.64,2.642a3.768,3.768,0,0,1-.018.67,8.824,8.824,0,0,1-1.229,3.253,9.408,9.408,0,0,0-3.944,1.264,3.89,3.89,0,0,0-2.137-1.261.927.927,0,0,0-1.009.493,40.214,40.214,0,0,0-3.045,4.177c-.29-.257-1.229-.435-1.44-.926.9-2.528,2.743-4.025,3.341-4.949C1512.711,562.116,1512.063,561.822,1512.063,561.822Z" transform="translate(-1502.582 -555.978)" fill="#2dc8e2" fill-rule="evenodd"/><path d="M1532.938,604.715a5.736,5.736,0,0,1-.626.854,9.983,9.983,0,0,1-2.876,1.587,18.187,18.187,0,0,0,2.724-1.694C1532.43,605.231,1532.828,604.671,1532.938,604.715Z" transform="translate(-1518.877 -595.333)" fill="#00a1c6" fill-rule="evenodd"/><path d="M1541.054,633.454s5.008-3.087,5.8-3.559C1548.15,629.116,1543.086,632.81,1541.054,633.454Z" transform="translate(-1528.259 -615.582)" fill="#00a1c6" fill-rule="evenodd"/><path d="M1566.753,633.248s-1.1.182-1.043-.008-.237.174-.237.174A2.084,2.084,0,0,0,1566.753,633.248Z" transform="translate(-1547.979 -618.326)" fill="#00a1c6" fill-rule="evenodd"/><path d="M1545.117,596.956a6.306,6.306,0,0,1,2.393-2.224,4.074,4.074,0,0,1,2.933-.156C1550.592,594.709,1548.391,593.682,1545.117,596.956Z" transform="translate(-1531.54 -586.987)" fill="#00a1c6" fill-rule="evenodd"/><path d="M1535.208,613.729s2.725,1.343,2.549,6.127c.24-.127.243-.176.32-.2C1538.391,619.579,1538.042,614.75,1535.208,613.729Z" transform="translate(-1523.538 -602.614)" fill="#00a1c6" fill-rule="evenodd"/><path d="M1479.7,577.151s2.669,1.356,3.017,3.43a5.349,5.349,0,0,0,.2-.675C1482.457,578.955,1481.005,577.35,1479.7,577.151Z" transform="translate(-1478.715 -573.076)" fill="#00a1c6" fill-rule="evenodd"/><path d="M1493.329,574.876s-.859,1.03-1.773,2.411a20.8,20.8,0,0,0-1.972,5.3C1489.484,583.665,1489.654,577.656,1493.329,574.876Z" transform="translate(-1486.68 -571.239)" fill="#00a1c6" fill-rule="evenodd"/><path d="M1500.908,574.583s-.031,1.677.157,1.736S1500.447,576.79,1500.908,574.583Z" transform="translate(-1495.723 -571.002)" fill="#00a1c6" fill-rule="evenodd"/><path d="M1517.5,593.085s-.73.894-1.412,1.806-1.3,1.825-1.3,1.825l-.173-.209A15.567,15.567,0,0,1,1517.5,593.085Z" transform="translate(-1506.906 -585.943)" fill="#00a1c6" fill-rule="evenodd"/><path d="M1548.286,560.211a2.576,2.576,0,0,0-.866.792C1547.314,561.212,1548.179,560.328,1548.286,560.211Z" transform="translate(-1533.393 -559.396)" fill="#00a1c6" fill-rule="evenodd"/><path d="M1567.274,571.052a4.281,4.281,0,0,1-.739,1.4C1566.181,572.719,1567.31,571.939,1567.274,571.052Z" transform="translate(-1548.781 -568.151)" fill="#00a1c6" fill-rule="evenodd"/></g><path d="M1492.275,629.545s-.834-1.27-1.321-1.321S1491.857,629.006,1492.275,629.545Z" transform="translate(-1386.43 -554.349)" fill="#00a1c6" fill-rule="evenodd"/><path d="M1549.275,463.247a13.491,13.491,0,0,0-3.485,2.281l-1.3,1.447a64.826,64.826,0,0,0-5.318,6.757c-1.215,1.89-.665,2.7-.665,2.7s-2.151,3.007-4.258,2.816c-2.464-.226-2.44.312-2.732.1.268-.242.829-2.678,1.519-4.209a6.111,6.111,0,0,1,1.161-1.955c.216-.131-.02.047.276-.249a28.632,28.632,0,0,0,3.865-5.262c-.983-.568-4.562-1.605-2.439-7.325,1.695-3.475,2.777-6.958,3.412-6.937l1.658-.806a41.1,41.1,0,0,1,7.477,4.86c.373.343-.179,3.111-.491,3.656,1.61-1.793,2.707-.652,2.788-.313C1550.91,461.429,1550.546,462.283,1549.275,463.247Z" transform="translate(-1419.265 -412.527)" fill="#ecc298" fill-rule="evenodd"/><path d="M1569.267,528.639s-2.822,2.782-3.071,4.8c-.57-2.026.416-2.9.739-5.489.244-1.955-1.63-1.062-.825-2.44a8.184,8.184,0,0,0,3.169.318,8.349,8.349,0,0,0,2.021-.652c.686-.356,1.195-1.032,1.256-.939.178.266-1.921,2.542-2.258,2.989C1569.86,527.8,1569.267,528.639,1569.267,528.639Z" transform="translate(-1447.04 -470.37)" fill="#c37e57" fill-rule="evenodd"/><path d="M1562.993,463.986l-2.839.812-.706.2s0,0-.007.005,0,0,0,0a7.664,7.664,0,0,1-7.153.171l-.26-.174c-1.091-.84-3.605-1.5-.687-9.468s6.693-5.479,6.693-5.479,8.371,9.679,8.448,9.885A49.186,49.186,0,0,1,1562.993,463.986Z" transform="translate(-1434.177 -410.179)" fill="#ecc298" fill-rule="evenodd"/><path d="M1600.143,527.752l-1,.289A1.991,1.991,0,0,1,1600.143,527.752Z" transform="translate(-1473.877 -473.216)" fill="#c37e57" fill-rule="evenodd"/><path d="M1570.416,483.97a2.392,2.392,0,0,1-1.906,1.323c-1.331.074.643.939.934.837s-.749-.036-.431-.512a.446.446,0,0,1,.347-.2A1.65,1.65,0,0,0,1570.416,483.97Z" transform="translate(-1448.773 -437.861)" fill="#c37e57"/><path d="M1566.463,496.529a3.387,3.387,0,0,0,3.42.352s.173-.168-.1-.5.5-.251.536.391.228.54-.157.347-1.571,1.178-3.772-.437C1566.395,496.681,1566.1,496.42,1566.463,496.529Z" transform="translate(-1447.34 -447.732)" fill="#c37e57"/><path d="M1571.754,471.889s.581-.954,2.106-.269l-.255.567s-1.088-.938-1.786-.268Z" transform="translate(-1451.761 -427.687)" fill="#3c3427"/><path d="M1590.514,477.881s.33-1.068-1.2-1.755l-.255.567s1.425.192,1.386,1.159Z" transform="translate(-1465.74 -431.526)" fill="#3c3427"/><path d="M1570.509,437.121a4.128,4.128,0,0,1-2.216,4.162,1.88,1.88,0,0,1,.112.276,3.464,3.464,0,0,1-1.133,3.673,6.292,6.292,0,0,1-5.039,1.474c-3.715,1.708-4.914-1.088-4.914-1.088s1.173-1.994,1.873-2.286c.033-.014.065-.03.105-.048a18.957,18.957,0,0,0,2.361-1.765c.233.642.882.38,1.145.22a11.076,11.076,0,0,0,1.117-1.789c.6-.926-.377-1.434-.867-1.859s-.017-2.411-1-2.977-.273-2.889-1.36-3.263a8.442,8.442,0,0,1-2.537-2.075c-.427-.38-1.4.13-2.276-.265s-2.324.369-2.324.369l-2.151,4.378a5.942,5.942,0,0,1-1.012-4.358,3.209,3.209,0,0,1,.207-.8,5.863,5.863,0,0,1,1.85-2.281s-.21-1.511,1.781-2.587a3.514,3.514,0,0,1,3.378-.243,4.466,4.466,0,0,1,4.281-1.4,6.425,6.425,0,0,1,3.678,2.624,4.094,4.094,0,0,1,3.821,2.846,5.838,5.838,0,0,1-.629,4.765S1570.3,434,1570.509,437.121Z" transform="translate(-1434.468 -388.215)" fill="#67ebf9"/><path d="M1571.492,437.117a4.127,4.127,0,0,1-2.216,4.162,1.9,1.9,0,0,1,.111.276,2.485,2.485,0,0,0-.85.529c-1.343,1.178-3.125-.666-3.467-1.095s.652-2-.042-2.558-.691-.954-.782-1.948a2.788,2.788,0,0,0-1.206-1.948c-.407-.282-.464-2.158-.5-2.572s-1.229-.868-1.627-1.051a11.558,11.558,0,0,1-1.834-1.727c-.192-.241-.9.126-2.021-.089s-1.9.4-2.586.385-.96,2.468-2.085,3.359c-.9.713-.857-2.392-.812-3.747a5.864,5.864,0,0,1,1.85-2.281s-.21-1.511,1.781-2.587a3.513,3.513,0,0,1,3.378-.243,4.467,4.467,0,0,1,4.282-1.4,6.423,6.423,0,0,1,3.677,2.624,4.1,4.1,0,0,1,3.821,2.846,5.839,5.839,0,0,1-.63,4.765S1571.286,434,1571.492,437.117Z" transform="translate(-1435.45 -388.211)" fill="#00a1c6" fill-rule="evenodd" opacity="0.28" style="isolation:isolate"/><path d="M1586.577,435.793s-.618-2.885.156-3.588-.366-.115.055,3.567C1586.786,435.773,1586.967,436.6,1586.577,435.793Z" transform="translate(-1463.543 -395.85)" fill="#00a1c6"/><path d="M1611.614,438.143s-2.881.633-3.443,5.159c0,0-.085,1,.3.273s.557-2.365,1-3.067S1612.186,438.179,1611.614,438.143Z" transform="translate(-1481.162 -400.854)" fill="#00a1c6"/><path d="M1622.762,475.542a4.571,4.571,0,0,0-2.933.4c-1.7.761-2.256,1.859-2.116,2.073s.977-1.395,2.361-1.676S1623.553,475.976,1622.762,475.542Z" transform="translate(-1488.859 -430.986)" fill="#00a1c6"/><path d="M1623.539,513.759a4.149,4.149,0,0,1,3.332.946s.388.606-.093.285a4.341,4.341,0,0,0-3.217-1.007S1622.989,513.973,1623.539,513.759Z" transform="translate(-1493.387 -461.877)" fill="#00a1c6"/><path d="M1560.685,446.628a2.617,2.617,0,0,0,.613,2.244c.9.805-.342-.578-.345-.967S1560.99,445.719,1560.685,446.628Z" transform="translate(-1442.788 -407.501)" fill="#00a1c6"/><path d="M1607.174,524.127a4.875,4.875,0,0,0,.167,3.707s.456.538.272-.126a7.9,7.9,0,0,1-.287-3.275C1607.543,523.152,1607.174,524.127,1607.174,524.127Z" transform="translate(-1480.132 -470.002)" fill="#00a1c6"/><path d="M1622.918,443.873a1.683,1.683,0,0,0-2.312.566l-.015.024c-.965,1.434.025-.241.978-.311S1623.437,444.073,1622.918,443.873Z" transform="translate(-1490.88 -405.284)" fill="#00a1c6"/><path d="M1585.357,487.481a1.521,1.521,0,0,0,1.447.757c.932-.147-.434.491-.932.148S1585.127,487.524,1585.357,487.481Z" transform="translate(-1462.676 -440.696)" fill="#3c3427"/><path d="M1568.1,480.438a1.521,1.521,0,0,0,1.447.757c.932-.147-.652.374-1.15.031S1567.868,480.482,1568.1,480.438Z" transform="translate(-1448.696 -435.009)" fill="#3c3427"/><path d="M1075.6,590.256s-3.911,5.317-21.307,5.028-15.871-1.557-23.135-1.281-14.706,3.5-19.011,1.8-16.32-7.8-18.741-.358-5.828,9.236-1.615,9.953,86.025,0,86.025,0h11.307s9.138.176,13.98-4.815-18.445-15.5-18.445-15.5S1076.735,586.953,1075.6,590.256Z" transform="translate(-981.814 -519.513)" fill="#2dc8e2"/><path d="M1439.965,564.573s4.607-2.419,11.046.1,9.661,2.2,12.71,5.858,6.616,4.32,3.129,7.349-3.389,7.064-5.455,4.463-13.006-14.31-20.718-12.133-5.736,4.156-5.649,1.911S1438.172,564.469,1439.965,564.573Z" transform="translate(-1341.117 -502.106)" fill="#67ebf9"/><rect width="9.751" height="10.672" transform="translate(70.126 95.347)" fill="#6a465c"/><rect width="5.059" height="10.672" transform="translate(70.126 95.347)" fill="#4a2e40"/><rect width="9.751" height="10.672" transform="translate(70.126 113.731)" fill="#6a465c"/><rect width="5.059" height="10.672" transform="translate(70.126 113.731)" fill="#4a2e40"/><ellipse cx="7.497" cy="8.484" rx="7.497" ry="8.484" transform="translate(65.686 100.825)" fill="#4a2e40"/><ellipse cx="7.497" cy="8.484" rx="7.497" ry="8.484" transform="translate(69.102 101.154)" fill="#6a465c"/><ellipse cx="4.955" cy="5.607" rx="4.955" ry="5.607" transform="translate(71.644 104.032)" fill="#4a2e40"/><ellipse cx="3.003" cy="3.398" rx="3.003" ry="3.398" transform="translate(73.596 106.24)" fill="#6a465c"/><path d="M1236.367,890.184H1269.8a4.106,4.106,0,0,1,4.106,4.106h-41.649a4.106,4.106,0,0,1,4.106-4.106Z" transform="translate(-1177.607 -765.894)" fill="#6a465c"/></g></g></g><path d="M0,.826a.7.7,0,0,1-.7-.7.7.7,0,0,1,.7-.7L228.535-.7h0a.7.7,0,0,1,.7.7.7.7,0,0,1-.7.7L0,.826Z" transform="translate(727.806 4066.889)" fill="#d3d3d3"/></g></svg>