<svg xmlns="http://www.w3.org/2000/svg" xmlns:xlink="http://www.w3.org/1999/xlink" width="1563.458" height="928.628" viewBox="0 0 1563.458 928.628"><defs><clipPath id="a"><path d="M272.486-34.179l74.8,87.283a1.409,1.409,0,0,1-.152,1.981l-56.525,48.437a1.41,1.41,0,0,1-1.981-.153l-74.8-87.283c2.264-29.385,56.341-20.21,58.658-50.266ZM398.918,152.468a8.124,8.124,0,0,1,11.456.881v0a8.124,8.124,0,0,1-.881,11.456h0a8.125,8.125,0,1,1-10.574-12.34ZM327.85,108.784c30.438,10.1-7.146,64.606,35.654,69.711,20.164,2.405,38.285-28.8,16.715-45.77-14.106-11.094-39.695-12.558-34.914-38.9L327.85,108.784Zm-.99-2.847,17.1-14.653L332.893,78.37l-17.1,14.653Z" transform="translate(-213.828 34.18)" fill="none"/></clipPath><clipPath id="b"><path d="M170.042,870.066a16.471,16.471,0,0,1,28.711-3.166,16.775,16.775,0,0,1-4.031,22.94,16.421,16.421,0,0,1-10.089,2.974l-.867,4.347a2.189,2.189,0,1,1-4.292-.866l.845-4.231a16.478,16.478,0,0,1-11.5-16.667l-40.832-9.713-12.544,5.206L29.87,842.343a2.736,2.736,0,0,1-2.069-3.268L170.04,870.065Zm8.919-2.708a10.987,10.987,0,1,0,8.208-1.824A10.954,10.954,0,0,0,178.961,867.358Z" transform="translate(-27.735 -839.075)" fill="none"/></clipPath></defs><g transform="translate(-140.844 57.04)" opacity="0.4"><g transform="translate(1485.007 9.844)" opacity="0.6"><circle cx="19.257" cy="19.257" r="19.257" transform="translate(58.185 147.729) rotate(-45)" fill="#f9f8e6"/><path d="M19.257-.7a19.964,19.964,0,0,1,7.769,38.35A19.964,19.964,0,0,1,11.487.866,19.835,19.835,0,0,1,19.257-.7Zm0,38.513A18.554,18.554,0,1,0,.7,19.257,18.575,18.575,0,0,0,19.257,37.81Z" transform="translate(58.185 147.729) rotate(-45)" fill="#026c56"/><path d="M1723.657,196.814a11.656,11.656,0,1,1-15.922,4.267,11.657,11.657,0,0,1,15.922-4.267Z" transform="translate(-1632.411 -59.179)" fill="#f9f8e6" fill-rule="evenodd"/><path d="M1717.841,194.548a12.354,12.354,0,0,1,6.168,1.657l.1.061a12.362,12.362,0,0,1-.2,21.4,12.353,12.353,0,0,1-12.268-.054,12.362,12.362,0,0,1,.092-21.46A12.426,12.426,0,0,1,1717.841,194.548Zm5.41,2.843a10.99,10.99,0,1,0,.055.032Z" transform="translate(-1632.411 -59.179)" fill="#026c56"/><path d="M1735.685-12.7l13.586,7.844,13.589,7.846c1.283.741,2.827.6,3.428-.326,8.721-13.463,18.254-28.182,28.717-44.335,11.53-17.8,24.3-37.508,38.538-59.5l-21.5-12.415-21.485-12.4c-11.917,23.316-22.608,44.236-32.263,63.134L1734.262-15.83C1733.759-14.844,1734.4-13.445,1735.685-12.7Z" transform="translate(-1648.505 125.99)" fill="#ffc84a" fill-rule="evenodd"/><path d="M1725.337,139.922l29,16.747a1.644,1.644,0,0,1,.6,2.242l-5.158,8.935a1.645,1.645,0,0,1-2.242.6L1718.537,151.7a1.645,1.645,0,0,1-.6-2.242l5.158-8.935A1.647,1.647,0,0,1,1725.337,139.922Z" transform="translate(-1639.067 -27.161)" fill="#f9f8e6" fill-rule="evenodd"/><path d="M1724.52,139a2.352,2.352,0,0,1,1.167.311l29.006,16.748a2.352,2.352,0,0,1,.859,3.2l-5.159,8.936a2.347,2.347,0,0,1-3.2.859l-29.006-16.747a2.353,2.353,0,0,1-.858-3.2l5.159-8.937A2.359,2.359,0,0,1,1724.52,139Zm23.84,28.961a.947.947,0,0,0,.817-.47l5.157-8.933a.943.943,0,0,0-.345-1.282l-29-16.746a.943.943,0,0,0-1.283.345l-5.157,8.934a.944.944,0,0,0,.345,1.283l29,16.745A.939.939,0,0,0,1748.359,167.961Z" transform="translate(-1639.067 -27.161)" fill="#026c56"/><path d="M1753.011,179.164a.7.7,0,0,1-.608-1.054,7.036,7.036,0,0,0-12.187-7.036.7.7,0,1,1-1.217-.7,8.442,8.442,0,0,1,14.621,8.442A.7.7,0,0,1,1753.011,179.164Z" transform="translate(-1651.684 -42.81)" fill="#026c56"/><path d="M1628.1,191.942c-4.577,7.929-4.141,18.291-3.666,29.553.51,12.117,1.061,25.2-4.089,38.541-6.148,15.929-16.4,28.11-31.2,36.086-14.567,7.851-33.46,11.542-57.106,10.621l.294-7.531c22.266.867,39.874-2.51,53.245-9.716,13.138-7.08,22.258-17.945,27.754-32.181,4.561-11.815,4.043-24.113,3.562-35.506-.522-12.408-1-23.825,4.666-33.644Z" transform="translate(-1532.036 -55.095)" fill="#ffac9c" fill-rule="evenodd"/><rect width="2.364" height="8.498" transform="translate(89.111 132.834) rotate(-59.998)" fill="#f9f8e6"/><path d="M-.7-.7H3.066V9.2H-.7ZM1.661.7H.7V7.8h.958Z" transform="translate(89.111 132.834) rotate(-59.998)" fill="#026c56"/><path d="M1746.329,195.966a.672.672,0,0,1,.887-.339h0a.672.672,0,0,1,.339.889h0c-4.171,9.381-3.58,20.655-2.947,32.725l.005.1a.672.672,0,0,1-1.343.07l-.005-.1C1742.625,217.074,1742.026,205.643,1746.329,195.966Z" transform="translate(-1653.534 -59.362)" fill="#ffdbd5" fill-rule="evenodd"/><path d="M1536.658,434.3a.673.673,0,0,1-.655-.69v0a.673.673,0,0,1,.691-.655h0q.937.026,1.7.039.816.014,1.686.02a.672.672,0,0,1,.668.677h0a.673.673,0,0,1-.677.668q-.813-.005-1.7-.021-.937-.015-1.721-.038Zm6.787.047a.672.672,0,0,1-.683-.661h0a.673.673,0,0,1,.661-.683h0c13.052-.178,24.316-1.98,34.014-5.2a71.548,71.548,0,0,0,24.552-13.691.672.672,0,0,1,.948.07h0a.672.672,0,0,1-.07.948,72.87,72.87,0,0,1-25.005,13.952C1568.043,432.343,1556.644,434.167,1543.445,434.348Z" transform="translate(-1534.322 -185.241)" fill="#ffdbd5" fill-rule="evenodd"/><path d="M18.306,11.272a.7.7,0,0,1-.351-.094L-.351.609a.7.7,0,0,1-.257-.96.7.7,0,0,1,.96-.257L18.658,9.96a.7.7,0,0,1-.352,1.312Z" transform="translate(108.384 86.812)" fill="#026c56"/><path d="M18.306,11.272a.7.7,0,0,1-.351-.094L-.351.609a.7.7,0,0,1-.257-.96.7.7,0,0,1,.96-.257L18.658,9.96a.7.7,0,0,1-.352,1.312Z" transform="translate(113.181 78.504)" fill="#026c56"/><path d="M18.306,11.272a.7.7,0,0,1-.351-.094L-.351.609a.7.7,0,0,1-.257-.96.7.7,0,0,1,.96-.257L18.658,9.96a.7.7,0,0,1-.352,1.312Z" transform="translate(117.978 70.196)" fill="#026c56"/></g><g transform="translate(152.607 -23.341)"><path d="M272.486-34.179l74.8,87.283a1.409,1.409,0,0,1-.152,1.981l-56.525,48.437a1.41,1.41,0,0,1-1.981-.153l-74.8-87.283c2.264-29.385,56.341-20.21,58.658-50.266ZM398.918,152.468a8.124,8.124,0,0,1,11.456.881v0a8.124,8.124,0,0,1-.881,11.456h0a8.125,8.125,0,1,1-10.574-12.34ZM327.85,108.784c30.438,10.1-7.146,64.606,35.654,69.711,20.164,2.405,38.285-28.8,16.715-45.77-14.106-11.094-39.695-12.558-34.914-38.9L327.85,108.784Zm-.99-2.847,17.1-14.653L332.893,78.37l-17.1,14.653Z" transform="translate(-189.641 61.557)" fill="#b0d2ca" fill-rule="evenodd" opacity="0.6"/><g transform="translate(24.187 27.377)"><g clip-path="url(#a)"><g transform="translate(-10.281 -14.113)"><path d="M291.611,85.066a.558.558,0,0,1,.786.053l.006.007a.557.557,0,0,1-.053.786l-.007.006a6.309,6.309,0,0,1-4.666,1.523,6.5,6.5,0,0,1-4.4-2.286L199.827-12.232A6.533,6.533,0,0,1,198.277-17a6.537,6.537,0,0,1,2.262-4.47l37.955-32.52a6.53,6.53,0,0,1,4.764-1.55,6.531,6.531,0,0,1,4.47,2.261l83.453,97.388a6.319,6.319,0,0,1,1.466,4.755A6.849,6.849,0,0,1,330.3,53.4a.557.557,0,0,1-.786-.054l-.006-.007a.562.562,0,0,1,.061-.792,5.721,5.721,0,0,0,1.965-3.785,5.2,5.2,0,0,0-1.206-3.917L246.873-52.543a5.4,5.4,0,0,0-3.7-1.873,5.408,5.408,0,0,0-3.948,1.282L201.266-20.613a5.41,5.41,0,0,0-1.872,3.7,5.41,5.41,0,0,0,1.283,3.948L284.13,84.426a5.394,5.394,0,0,0,3.639,1.9A5.19,5.19,0,0,0,291.611,85.066Z" transform="translate(-198.256 55.556)" fill="#fff" fill-rule="evenodd"/></g></g></g><path d="M240.726-77.051a8.443,8.443,0,0,1,6.4,2.93L340.16,34.449a8.446,8.446,0,0,1-.911,11.874L282.719,94.768a8.446,8.446,0,0,1-11.874-.912L177.81-14.714a8.392,8.392,0,0,1-2-6.13,8.392,8.392,0,0,1,2.909-5.75L235.25-75.034A8.453,8.453,0,0,1,240.726-77.051ZM277.245,93.974a5.635,5.635,0,0,0,3.649-1.344l56.522-48.439a5.648,5.648,0,0,0,.606-7.916L244.993-72.289a5.632,5.632,0,0,0-4.268-1.951,5.636,5.636,0,0,0-3.65,1.344L180.555-24.462a5.644,5.644,0,0,0-.608,7.921l93.03,108.564A5.632,5.632,0,0,0,277.245,93.974Z" transform="translate(-177.195 75.646)" fill="#b3b3b3"/><path d="M0-1.406H28.131A1.406,1.406,0,0,1,29.537,0V22.619a1.406,1.406,0,0,1-1.406,1.406H0a1.406,1.406,0,0,1-1.406-1.406V0A1.406,1.406,0,0,1,0-1.406ZM26.726,1.406H1.406V21.214h25.32Z" transform="translate(122.195 154.275) rotate(-40.594)" fill="#b3b3b3"/><g transform="translate(121.565 139.618)"><path d="M0,20.565a1.4,1.4,0,0,1-1.181-.642,1.406,1.406,0,0,1,.416-1.944L28.842-1.18a1.406,1.406,0,0,1,1.944.416A1.406,1.406,0,0,1,30.37,1.18L.764,20.34A1.4,1.4,0,0,1,0,20.565Z" fill="#b3b3b3"/><path d="M0,20.565a1.4,1.4,0,0,1-1.181-.642,1.406,1.406,0,0,1,.416-1.944L28.841-1.18a1.406,1.406,0,0,1,1.944.416,1.406,1.406,0,0,1-.416,1.944L.764,20.34A1.4,1.4,0,0,1,0,20.565Z" transform="translate(3.867 4.512)" fill="#b3b3b3"/><path d="M0,20.565a1.4,1.4,0,0,1-1.181-.642,1.406,1.406,0,0,1,.416-1.944L28.841-1.18a1.406,1.406,0,0,1,1.944.416,1.406,1.406,0,0,1-.416,1.944L.764,20.339A1.4,1.4,0,0,1,0,20.565Z" transform="translate(7.734 9.025)" fill="#b3b3b3"/></g><path d="M210.89.679l-11.064-12.91A6.533,6.533,0,0,1,198.277-17a6.537,6.537,0,0,1,2.262-4.47l37.955-32.52a6.53,6.53,0,0,1,4.764-1.55,6.531,6.531,0,0,1,4.47,2.261L264.9-33.237q-.278.53-.588,1.039L246.873-52.543a5.4,5.4,0,0,0-3.7-1.872,5.406,5.406,0,0,0-3.948,1.282l-37.955,32.52a5.412,5.412,0,0,0-1.873,3.7,5.41,5.41,0,0,0,1.283,3.948L211.49-.341Q211.175.157,210.89.679Z" transform="translate(-184.351 68.82)" fill="#ccc" fill-rule="evenodd"/></g><g transform="matrix(0.978, 0.208, -0.208, 0.978, 561.259, -33.648)" opacity="0.6"><rect width="32.463" height="88.556" transform="translate(0.694 18.012) rotate(-24.644)" fill="#a8c8c1"/><path d="M0-.7H32.463a.7.7,0,0,1,.7.7V88.556a.7.7,0,0,1-.7.7H0a.7.7,0,0,1-.7-.7V0A.7.7,0,0,1,0-.7ZM31.76.7H.7V87.853H31.76Z" transform="translate(0.694 18.012) rotate(-24.644)" fill="#026c56"/><path d="M4.474,7.821,20.01.694A7.708,7.708,0,0,1,30.2,4.476h0L.694,18.011h0A7.709,7.709,0,0,1,4.474,7.821Z" transform="translate(0 0)" fill="#a8c8c1" fill-rule="evenodd"/><path d="M23.2-.7a8.411,8.411,0,0,1,7.639,4.884.7.7,0,0,1-.345.934L.987,18.65A.7.7,0,0,1,.055,18.3,8.411,8.411,0,0,1,4.179,7.184L19.717.056A8.349,8.349,0,0,1,23.2-.7Zm6.035,4.848A7.034,7.034,0,0,0,23.2.7a6.95,6.95,0,0,0-2.9.631L4.767,8.46a7.025,7.025,0,0,0-3.693,8.6Z" transform="translate(0 0)" fill="#026c56"/><rect width="4.927" height="82.826" transform="matrix(0.909, -0.417, 0.417, 0.909, 53.038, 99.092)" fill="#f6f7e7"/><path d="M0-.7H4.927a.7.7,0,0,1,.7.7V82.826a.7.7,0,0,1-.7.7H0a.7.7,0,0,1-.7-.7V0A.7.7,0,0,1,0-.7ZM4.224.7H.7v81.42H4.224Z" transform="matrix(0.909, -0.417, 0.417, 0.909, 53.038, 99.092)" fill="#026c56"/><rect width="4.928" height="6.966" transform="translate(50.133 92.762) rotate(-24.642)" fill="#f6f7e7"/><path d="M0-.7H4.928a.7.7,0,0,1,.7.7V6.966a.7.7,0,0,1-.7.7H0a.7.7,0,0,1-.7-.7V0A.7.7,0,0,1,0-.7ZM4.225.7H.7v5.56H4.225Z" transform="translate(50.133 92.762) rotate(-24.642)" fill="#026c56"/><path d="M5.107,32.754l9.65-4.426L24.414,23.9,8.233,4.5,4.479,0,2.238,1.028,0,2.055c.228,1.366.533,3.2.963,5.784C1.618,11.8,2.747,18.571,5.107,32.754Z" transform="translate(87.576 172.32)" fill="#a8c8c1" fill-rule="evenodd"/><path d="M5.107,33.457a.7.7,0,0,1-.693-.587L2.569,21.784C1.419,14.872.724,10.7.269,7.954-.16,5.369-.465,3.536-.693,2.17a.7.7,0,0,1,.4-.755L4.186-.639a.7.7,0,0,1,.833.189l3.754,4.5L24.954,23.447a.7.7,0,0,1-.247,1.089L5.4,33.393A.7.7,0,0,1,5.107,33.457ZM.782,2.469c.217,1.3.5,2.99.874,5.255.455,2.745,1.149,6.918,2.3,13.83L5.649,31.732l17.637-8.091L7.693,4.955,4.283.863Z" transform="translate(87.576 172.32)" fill="#1f7261"/><g transform="translate(87.88 172.461)"><path d="M17.466,25.735a.7.7,0,0,1-.577-.3L-.576.4A.7.7,0,0,1-.4-.576.7.7,0,0,1,.576-.4L18.042,24.63a.7.7,0,0,1-.576,1.1Z" transform="translate(3.865 0)" fill="#1f7261"/><path d="M15.486,26.641a.7.7,0,0,1-.6-.343Q7.14,13.329-.6.36A.7.7,0,0,1-.36-.6.7.7,0,0,1,.6-.36Q8.347,12.609,16.089,25.578a.7.7,0,0,1-.6,1.063Z" transform="translate(3.092 0.355)" fill="#1f7261"/><path d="M13.515,27.544a.7.7,0,0,1-.628-.387L-.628.316A.7.7,0,0,1-.316-.628a.7.7,0,0,1,.944.312L14.142,26.525a.7.7,0,0,1-.627,1.019Z" transform="translate(2.319 0.709)" fill="#1f7261"/><path d="M11.536,28.455a.7.7,0,0,1-.649-.433L-.649.27A.7.7,0,0,1-.27-.649.7.7,0,0,1,.649-.27L12.184,27.482a.7.7,0,0,1-.649.973Z" transform="translate(1.546 1.063)" fill="#1f7261"/><path d="M9.559,29.362a.7.7,0,0,1-.667-.481L-.667.222A.7.7,0,0,1-.222-.667a.7.7,0,0,1,.889.444l9.559,28.659a.7.7,0,0,1-.667.925Z" transform="translate(0.774 1.418)" fill="#1f7261"/><path d="M7.582,30.269a.7.7,0,0,1-.68-.528L-.681.175A.7.7,0,0,1-.175-.681a.7.7,0,0,1,.855.506L8.263,29.391a.7.7,0,0,1-.681.878Z" transform="translate(0 1.773)" fill="#1f7261"/></g></g><rect width="105.563" height="38.697" transform="translate(1258.167 65.936) rotate(-79.527)" fill="#a8c8c1"/><path d="M0-.7H105.563a.7.7,0,0,1,.7.7V38.7a.7.7,0,0,1-.7.7H0a.7.7,0,0,1-.7-.7V0A.7.7,0,0,1,0-.7ZM104.86.7H.7V37.994H104.86Z" transform="translate(1258.167 65.936) rotate(-79.527)" fill="#026c56"/><path d="M1498.8-29.012l20.036,3.7a9.191,9.191,0,0,1,7.344,10.675h0l-38.054-7.035h0A9.189,9.189,0,0,1,1498.8-29.012Z" transform="translate(-177.117 -8.707)" fill="#a8c8c1" fill-rule="evenodd"/><path d="M1497.146-29.865a9.975,9.975,0,0,1,1.779.161l20.038,3.7a9.833,9.833,0,0,1,6.325,4.116,9.832,9.832,0,0,1,1.583,7.375.7.7,0,0,1-.292.453.7.7,0,0,1-.527.113L1488-20.979a.7.7,0,0,1-.452-.294.7.7,0,0,1-.111-.527A9.892,9.892,0,0,1,1497.146-29.865Zm28.44,14.405a8.511,8.511,0,0,0-6.88-9.159l-20.034-3.7a8.559,8.559,0,0,0-1.526-.138,8.485,8.485,0,0,0-8.171,6.232Z" transform="translate(-177.117 -8.707)" fill="#026c56"/><g opacity="0.6"><path d="M1479.558,108.9l5.775,1.067-26.856,145.29a2.944,2.944,0,0,1-3.422,2.354h0a2.944,2.944,0,0,1-2.354-3.421Z" transform="translate(-206.762 -31.819)" fill="#f6f7e7" fill-rule="evenodd"/><path d="M1479.557,108.2a.706.706,0,0,1,.129.012l5.775,1.067a.7.7,0,0,1,.563.819l-26.856,145.29a3.64,3.64,0,0,1-7.159-1.32l26.857-145.292A.7.7,0,0,1,1479.557,108.2Zm4.957,2.333-4.393-.812-26.729,144.6a2.234,2.234,0,0,0,4.394.81Z" transform="translate(-206.762 -31.819)" fill="#026c56"/></g><rect width="8.303" height="5.874" transform="translate(1272.797 77.083) rotate(-79.526)" fill="#f6f7e7"/><path d="M0-.7H8.3a.7.7,0,0,1,.7.7V5.874a.7.7,0,0,1-.7.7H0a.7.7,0,0,1-.7-.7V0A.7.7,0,0,1,0-.7ZM7.6.7H.7V5.171H7.6Z" transform="translate(1272.797 77.083) rotate(-79.526)" fill="#026c56"/><path d="M0,.941a.7.7,0,0,1-.7-.7.7.7,0,0,1,.7-.709L26.524-.7a.7.7,0,0,1,.709.7.7.7,0,0,1-.7.709L.006.941Z" transform="translate(1247.576 157.793)" fill="#026c56" opacity="0.6"/><g transform="translate(823.801 -57.04)" opacity="0.6"><path d="M1453.589,206.063a.7.7,0,0,1-.006-1.406l26.531-.239h.006a.7.7,0,0,1,.006,1.406l-26.531.239Z" transform="translate(-1030.669 14.337)" fill="#026c56"/><path d="M1452.623,211.293a.7.7,0,0,1-.006-1.406l26.531-.238h.006a.7.7,0,0,1,.006,1.406l-26.531.238Z" transform="translate(-1030.56 13.745)" fill="#026c56"/><path d="M1451.658,216.517a.7.7,0,0,1-.006-1.406l26.531-.238h.006a.7.7,0,0,1,.006,1.406l-26.531.238Z" transform="translate(-1030.451 13.154)" fill="#026c56"/><path d="M1450.685,221.741a.7.7,0,0,1-.006-1.406l26.531-.238h.006a.7.7,0,0,1,.006,1.406l-26.531.238Z" transform="translate(-1030.341 12.563)" fill="#026c56"/><path d="M1449.726,226.964a.7.7,0,0,1-.006-1.406l26.531-.239h.006a.7.7,0,0,1,.006,1.406l-26.531.239Z" transform="translate(-1030.233 11.973)" fill="#026c56"/><path d="M1448.761,232.187a.7.7,0,0,1-.006-1.406l26.531-.239h.006a.7.7,0,0,1,.006,1.406l-26.531.239Z" transform="translate(-1030.123 11.382)" fill="#026c56"/><path d="M1447.8,237.407a.7.7,0,0,1-.006-1.406l26.531-.238h.006a.7.7,0,0,1,.006,1.406l-26.531.238Z" transform="translate(-1030.014 10.791)" fill="#026c56"/><path d="M1446.83,242.633a.7.7,0,0,1-.006-1.406l26.531-.238h.006a.7.7,0,0,1,.006,1.406l-26.531.238Z" transform="translate(-1029.905 10.2)" fill="#026c56"/><path d="M1445.865,247.856a.7.7,0,0,1-.006-1.406l26.53-.239h.006a.7.7,0,0,1,.006,1.406l-26.53.239Z" transform="translate(-1029.796 9.609)" fill="#026c56"/><path d="M1444.9,253.079a.7.7,0,0,1-.006-1.406l26.531-.238h.006a.7.7,0,0,1,.006,1.406l-26.531.238Z" transform="translate(-1029.686 9.018)" fill="#026c56"/><path d="M1443.939,258.3a.7.7,0,0,1-.006-1.406l26.532-.239h.006a.7.7,0,0,1,.006,1.406l-26.532.239Z" transform="translate(-1029.578 8.428)" fill="#026c56"/><path d="M1442.969,263.526a.7.7,0,0,1-.006-1.406l26.531-.239h.006a.7.7,0,0,1,.006,1.406l-26.531.239Z" transform="translate(-1029.468 7.837)" fill="#026c56"/><path d="M206.716,35.886a9.617,9.617,0,0,0,3.51-13.1L197.581.887a1.752,1.752,0,0,0-3.035,1.752L204.3,19.531a1.752,1.752,0,0,1-3.035,1.752L191.512,4.392a1.754,1.754,0,0,0-3.039,1.752l9.752,16.892a1.753,1.753,0,0,1-3.035,1.752L185.438,7.9A1.753,1.753,0,0,0,182.4,9.649l9.752,16.891a1.754,1.754,0,0,1-3.039,1.752L179.365,11.4a1.752,1.752,0,0,0-3.035,1.752l9.752,16.891a1.753,1.753,0,0,1-3.035,1.753l-9.752-16.891a1.752,1.752,0,0,0-3.035,1.752l9.752,16.892a1.753,1.753,0,0,1-3.035,1.752l-9.752-16.891a1.752,1.752,0,0,0-3.035,1.753l9.752,16.891a1.752,1.752,0,0,1-3.035,1.752l-9.752-16.891a1.754,1.754,0,0,0-3.039,1.752l9.752,16.892a1.752,1.752,0,0,1-3.035,1.752L155.08,25.42a1.754,1.754,0,0,0-3.039,1.753l9.753,16.891a1.752,1.752,0,0,1-3.035,1.752l-9.753-16.891a1.754,1.754,0,0,0-3.039,1.752l9.753,16.891a1.752,1.752,0,0,1-3.034,1.752l-9.753-16.891a1.753,1.753,0,0,0-3.035,1.753l9.752,16.892a1.752,1.752,0,0,1-3.035,1.752l-9.753-16.891a1.752,1.752,0,0,0-3.035,1.752l9.752,16.891a1.753,1.753,0,0,1-3.035,1.752l-9.753-16.891a1.752,1.752,0,0,0-3.035,1.752l9.753,16.891a1.755,1.755,0,0,1-3.039,1.753L124.72,42.944a1.752,1.752,0,0,0-3.035,1.752l9.753,16.892A1.754,1.754,0,0,1,128.4,63.34l-9.752-16.891a1.752,1.752,0,0,0-3.035,1.752l9.751,16.891a1.752,1.752,0,0,1-3.035,1.752l-9.752-16.891a1.752,1.752,0,0,0-3.035,1.752L119.293,68.6a1.752,1.752,0,0,1-3.035,1.752l-9.752-16.891a1.752,1.752,0,0,0-3.035,1.752L113.223,72.1a1.753,1.753,0,0,1-3.035,1.752L100.46,56.962a1.753,1.753,0,0,0-3.035,1.753l9.752,16.891a1.752,1.752,0,0,1-3.035,1.752L94.39,60.467a1.754,1.754,0,0,0-3.04,1.752L101.1,79.11a1.753,1.753,0,0,1-3.035,1.753L88.316,63.973a1.752,1.752,0,0,0-3.035,1.751l9.753,16.892A1.752,1.752,0,0,1,92,84.368L82.246,67.477a1.752,1.752,0,0,0-3.035,1.752L88.963,86.12a1.752,1.752,0,0,1-3.034,1.752L76.176,70.981a1.754,1.754,0,0,0-3.04,1.753L82.89,89.625a1.752,1.752,0,0,1-3.035,1.752L70.1,74.486a1.754,1.754,0,0,0-3.039,1.752L76.816,93.13a1.752,1.752,0,0,1-3.034,1.752L64.029,77.991a1.754,1.754,0,0,0-3.04,1.752l9.753,16.891a1.752,1.752,0,0,1-3.035,1.752L57.955,81.5a1.752,1.752,0,0,0-3.035,1.752l9.752,16.892a1.753,1.753,0,0,1-3.035,1.752L51.885,85a1.752,1.752,0,0,0-3.035,1.752L58.6,103.644a1.752,1.752,0,0,1-3.035,1.752L45.815,88.5a1.752,1.752,0,0,0-3.035,1.752l9.752,16.891a1.754,1.754,0,0,1-3.039,1.753L39.741,92.009a1.752,1.752,0,0,0-3.035,1.752l9.752,16.892a1.754,1.754,0,0,1-3.039,1.752L33.668,95.515a1.754,1.754,0,0,0-3.039,1.752l9.752,16.891a1.752,1.752,0,0,1-3.035,1.752L27.6,99.019a1.754,1.754,0,0,0-3.039,1.752l9.753,16.892a1.754,1.754,0,0,1-3.039,1.752l-9.752-16.892a1.754,1.754,0,0,0-3.039,1.753l9.752,16.891a1.752,1.752,0,0,1-3.035,1.752l-9.752-16.891a1.754,1.754,0,0,0-3.039,1.752l9.753,16.891a1.752,1.752,0,0,1-3.035,1.752L9.371,109.533a1.754,1.754,0,0,0-3.038,1.752l9.753,16.891a1.754,1.754,0,0,1-3.039,1.753L3.294,113.038A1.752,1.752,0,0,0,.259,114.79L12.9,136.69A9.618,9.618,0,0,0,26,140.2Z" transform="translate(0 175.342) rotate(-56)" fill="#b8c39d" fill-rule="evenodd"/></g><path d="M0,.941a.7.7,0,0,1-.7-.7.7.7,0,0,1,.7-.709L26.524-.7a.7.7,0,0,1,.709.7.7.7,0,0,1-.7.709L.006.941Z" transform="translate(1236.446 218.015)" fill="#026c56" opacity="0.6"/><g transform="translate(140.844 506.059)" opacity="0.7"><g transform="translate(1389.564 18.227)"><path d="M170.042,870.066a16.471,16.471,0,0,1,28.711-3.166,16.775,16.775,0,0,1-4.031,22.94,16.421,16.421,0,0,1-10.089,2.974l-.867,4.347a2.189,2.189,0,1,1-4.292-.866l.845-4.231a16.478,16.478,0,0,1-11.5-16.667l-40.832-9.713-12.544,5.206L29.87,842.343a2.736,2.736,0,0,1-2.069-3.268L170.04,870.065Zm8.919-2.708a10.987,10.987,0,1,0,8.208-1.824A10.954,10.954,0,0,0,178.961,867.358Z" transform="translate(-27.735 -796.542)" fill="#ff8057" fill-rule="evenodd"/><g transform="translate(0 42.533)"><g clip-path="url(#b)"><g transform="translate(88.363 19.237)"><g transform="translate(0)"><path d="M210.6,891.256l-5.328,2.21-.245-5.634-4.477-4.715,7.645,1.665Z" transform="translate(-200.547 -883.117)" fill="#f24034" fill-rule="evenodd"/></g></g></g></g><path d="M184.879,857.983A16.474,16.474,0,0,0,204.07,884a12.974,12.974,0,0,1,2.9,5.478,12.35,12.35,0,0,1-.828,7.319,2.736,2.736,0,0,0,1.545,3.547h0a2.737,2.737,0,0,0,3.548-1.545,17.627,17.627,0,0,0,1.068-10.522,18.071,18.071,0,0,0-3.73-7.424,16.472,16.472,0,0,0-19.383-26.233l-26.1-32.872-.6-13.568-62.112-65.423a2.735,2.735,0,0,0-3.836-.491L184.88,857.982Zm1.326,9.227a10.987,10.987,0,1,1,1.825,8.208A10.952,10.952,0,0,1,186.205,867.21Z" transform="translate(-69.661 -741.696)" fill="#fff" fill-rule="evenodd"/><g transform="translate(83.106 64.903)"><path d="M223.256,890.826a2.953,2.953,0,0,0,3.391,4.836h0a2.953,2.953,0,0,0,.723-4.112h0A2.953,2.953,0,0,0,223.256,890.826Z" transform="translate(-221.967 -890.291)" fill="#fff" fill-rule="evenodd"/><path d="M224.948,889.588h0a3.662,3.662,0,0,1,2.954,1.5l0,0,.04.056a3.66,3.66,0,0,1-.865,5.07h0l-.029.02a3.656,3.656,0,1,1-2.1-6.65Zm1.86,2.385-.015-.021a2.255,2.255,0,0,0-1.845-.958h0a2.25,2.25,0,1,0,1.285,4.1l.01-.007A2.253,2.253,0,0,0,226.809,891.973Z" transform="translate(-221.967 -890.291)" fill="#026c56"/><path d="M5.776,1.728-.122.692.122-.692,6.019.344Z" transform="translate(0 2.398)" fill="#026c56"/></g></g><g transform="translate(1178.684 142.228)"><path d="M313.84,921.133l155.081,112.938c8.631,6.287,9.4,25,.823,37.4-8.038,11.625-25.119,17.238-35.244,9.865L279.418,968.4c-8.161-5.942-12.263-24.679,4.959-36.864L273.2,922.086C284.614,913.2,300.513,911.429,313.84,921.133Z" transform="translate(-272.279 -914.168)" fill="#f9f8e6" fill-rule="evenodd"/><path d="M294.347,913.9a32.534,32.534,0,0,1,10.115,1.613,35.232,35.232,0,0,1,9.791,5.053L469.335,1033.5a15.9,15.9,0,0,1,5.213,7.056,28.772,28.772,0,0,1,1.94,9.9,36.556,36.556,0,0,1-6.166,21.414c-5.579,8.068-15.582,13.489-24.892,13.489a19.087,19.087,0,0,1-11.344-3.456L279,968.969a17.08,17.08,0,0,1-5.279-6.749,23.057,23.057,0,0,1-2.051-9.717,23.9,23.9,0,0,1,2.84-11.129,29.791,29.791,0,0,1,8.724-9.879l-10.488-8.872a.7.7,0,0,1,.022-1.091,36.71,36.71,0,0,1,10.206-5.637A33.7,33.7,0,0,1,294.347,913.9ZM445.43,1083.957c8.869,0,18.408-5.177,23.736-12.883a35.122,35.122,0,0,0,5.917-20.575c-.2-7.078-2.659-13.007-6.575-15.86L313.426,921.7a32.32,32.32,0,0,0-19.079-6.4,33.9,33.9,0,0,0-20.019,6.812l10.5,8.885a.7.7,0,0,1-.048,1.11c-7.493,5.3-11.65,12.547-11.7,20.4-.043,6.289,2.608,12.3,6.752,15.321l155.081,112.938A17.694,17.694,0,0,0,445.43,1083.957Z" transform="translate(-272.279 -914.168)" fill="#b3b3b3"/><path d="M536.985,972.6q-.5,0-1-.02a21.955,21.955,0,0,1-8.559-2.063,19.574,19.574,0,0,1-10.755-13.357,21.957,21.957,0,0,1-.19-8.8,25.346,25.346,0,0,1,3.244-8.624,27.841,27.841,0,0,1,6.476-7.415,18.013,18.013,0,0,1,11.985-4.1,14.872,14.872,0,0,1,5.8,1.4,13.283,13.283,0,0,1,7.3,9.063,14.872,14.872,0,0,1,.129,5.962,18.017,18.017,0,0,1-6.564,10.834,9.362,9.362,0,0,1-6.227,2.125,7.178,7.178,0,0,1-6.946-8.622,9.356,9.356,0,0,1,3.408-5.63.7.7,0,0,1,.881,1.095,7.952,7.952,0,0,0-2.9,4.779,5.924,5.924,0,0,0,1.151,4.823c2.206,2.736,6.583,2.886,9.757.336,6.649-5.354,8.271-14.413,3.617-20.192s-13.851-6.126-20.5-.773c-10.123,8.154-12.581,21.963-5.48,30.783a19.169,19.169,0,0,0,14.44,6.978,25.263,25.263,0,0,0,16.8-5.766c13.6-10.951,16.893-29.511,7.341-41.373a25.79,25.79,0,0,0-19.426-9.391,33.928,33.928,0,0,0-22.561,7.74.7.7,0,0,1-.882-1.095A36.876,36.876,0,0,1,528.746,915a33.552,33.552,0,0,1,12.073-1.761,29.044,29.044,0,0,1,11.322,2.728,25.865,25.865,0,0,1,14.212,17.65,29.045,29.045,0,0,1,.251,11.643,33.557,33.557,0,0,1-4.3,11.419,36.874,36.874,0,0,1-8.58,9.823,27.82,27.82,0,0,1-8.622,4.746A25.49,25.49,0,0,1,536.985,972.6Z" transform="translate(-516.835 -913.913)" fill="#b3b3b3"/></g><g transform="translate(242.221 101.148) rotate(158)"><path d="M89.872,55.279l-74.9,44.6h-.005l-.851.508a4.455,4.455,0,0,1-6.089-1.544h0a4.078,4.078,0,0,1-.22-.419c-.1-.14-.2-.287-.29-.437L.761,86.636a5.456,5.456,0,0,1,1.891-7.457l74.9-44.6A5.455,5.455,0,0,1,85,36.468l5,8.389L158.95,3.8a4.45,4.45,0,0,1,4.2-.182,30.538,30.538,0,0,1,12.816-3.6,34.866,34.866,0,0,1,16.83,3.712,2.581,2.581,0,0,1,1.224,3.438h0a2.581,2.581,0,0,1-3.439,1.218,29.8,29.8,0,0,0-14.351-3.2,25.476,25.476,0,0,0-10.6,2.973,4.443,4.443,0,0,1-2.131,3.272L89.878,55.271Z" transform="translate(22.899 8.082)" fill="#999" fill-rule="evenodd"/><path d="M185.232,3.071a12.929,12.929,0,1,1-2.953,25.688,430.138,430.138,0,0,0-84.16-1.511A443.919,443.919,0,0,0,16.337,41.7,12.931,12.931,0,0,1,9.529,16.75h0a469.622,469.622,0,0,1,86.462-15.3A456.208,456.208,0,0,1,185.232,3.071Z" transform="translate(0 0)" fill="#a2d9f7" fill-rule="evenodd"/><path d="M4.813,7.951A4.015,4.015,0,1,1,7.952,3.218,4.016,4.016,0,0,1,4.813,7.951Z" transform="translate(9.271 25.003)" fill="#fff" fill-rule="evenodd"/><path d="M4.813,7.951A4.015,4.015,0,0,1,.081,4.815v0A4.012,4.012,0,0,1,3.216.081h0A4.015,4.015,0,0,1,4.813,7.951Z" transform="translate(180.109 11.541)" fill="#fff" fill-rule="evenodd"/></g><g transform="translate(885.014 164.07)"><path d="M761.96,967.047c-13.788-56.008-36.294-58.336-60.217-52.484-73.083,17.878-53.376,50.223-26.721,62.369C698.769,987.75,772.238,1008.793,761.96,967.047Z" transform="translate(-650.934 -912.372)" fill="#ccc" fill-rule="evenodd"/><path d="M752.638,973.236a2.414,2.414,0,0,0,4.788-.625c-1.733-13.228-5.754-24.957-11.256-33.863-5.654-9.159-12.913-15.4-20.934-17.35-5.454-1.328-14.89.037-24.886,2.984a118.949,118.949,0,0,0-28.731,12.582,2.413,2.413,0,0,0,2.593,4.07,113.928,113.928,0,0,1,27.5-12.014c9.262-2.73,17.787-4.047,22.389-2.927,6.734,1.64,12.97,7.105,17.962,15.192,5.155,8.343,8.931,19.407,10.574,31.951ZM667.706,946.02a2.416,2.416,0,0,0-3.369-3.464,22.028,22.028,0,0,0-2.987,3.511,12.245,12.245,0,0,0-1.721,3.682,2.415,2.415,0,0,0,4.674,1.213,7.5,7.5,0,0,1,1.059-2.208,17.281,17.281,0,0,1,2.344-2.729Z" transform="translate(-652.79 -913.624)" fill="#fff" fill-rule="evenodd"/></g><g transform="translate(752.44 197.45)"><path d="M852.948,983.5c12.588-34.789,27.1-34.752,41.962-29.4,45.4,16.346,30.646,35.644,12.823,41.587C891.85,1000.985,843.568,1009.434,852.948,983.5Z" transform="translate(-851.75 -951.505)" fill="#ccc" fill-rule="evenodd"/><path d="M857.02,987.522a1.447,1.447,0,0,0,1.074,1.742l.005,0a1.446,1.446,0,0,0,1.742-1.071l0-.008a52.537,52.537,0,0,1,8.926-19.7c3.747-4.839,8.117-7.912,12.552-8.512,3.03-.407,8.392,1.014,14.132,3.388a73.189,73.189,0,0,1,16.748,9.542,1.451,1.451,0,0,0,2.038-.233h0a1.45,1.45,0,0,0-.23-2.037h0a76.345,76.345,0,0,0-17.453-9.951c-6.163-2.549-12.07-4.055-15.62-3.579-5.218.7-10.248,4.173-14.459,9.613a55.442,55.442,0,0,0-9.449,20.8Zm61.232-12.829a1.448,1.448,0,0,0-2.228,1.851h0a11.067,11.067,0,0,1,1.319,1.918h0a4.9,4.9,0,0,1,.533,1.513,1.452,1.452,0,0,0,1.651,1.221h0a1.452,1.452,0,0,0,1.221-1.649v0a7.765,7.765,0,0,0-.839-2.434h0a14.03,14.03,0,0,0-1.657-2.42Z" transform="translate(-851.941 -952.316)" fill="#fff" fill-rule="evenodd"/></g><g transform="translate(369.046 79.216)"><path d="M1243.275,1100.386c26.728,18.456,23.8,37.7,20.975,56.247-3.154,20.705-6.184,40.617,25.128,58.376l3.1-5.462c-27.539-15.618-24.826-33.443-22-51.978,3.111-20.436,6.342-41.651-23.631-62.349Z" transform="translate(-1153.992 -928.695)" fill="#ce809d" fill-rule="evenodd"/><g transform="translate(0)"><path d="M1356.941,1069.419l-14.074,8.345a4.888,4.888,0,0,1-6.678-1.707l-23.314-39.32c-3.977-6.708-.518-7.83-3.482-12.835-4.375-7.378-13.975-3.138-20.756-14.578a20.294,20.294,0,0,1,7.105-27.807h0a20.3,20.3,0,0,1,27.809,7.105c6.884,11.613-1.763,17.466,2.832,25.206,2.435,4.108,5.1,3.1,8.62,9.038l23.641,39.875A4.889,4.889,0,0,1,1356.941,1069.419Z" transform="translate(-1252.202 -898.124)" fill="#fff" fill-rule="evenodd"/><path d="M1356.339,1067.422l-14.074,8.345a.927.927,0,0,1-1.252-.32l-23.315-39.319a9.015,9.015,0,0,1-1.565-5.989,12.622,12.622,0,0,0-1.917-6.844,13.352,13.352,0,0,0-4.718-4.726c-2.87-1.72-6-2.282-9.021-3.569a14.126,14.126,0,0,1-7.021-6.283,16.332,16.332,0,0,1,5.716-22.379l0,0a16.334,16.334,0,0,1,22.381,5.717v0a13.789,13.789,0,0,1,2.162,8.8c-.284,3.057-1.267,5.91-1.3,9.034a14.038,14.038,0,0,0,5.879,11.619c2.282,1.667,3.189,2.216,4.712,4.784l23.641,39.875A.927.927,0,0,1,1356.339,1067.422Z" transform="translate(-1253.62 -899.534)" fill="#ffac9c" fill-rule="evenodd"/><path d="M1296.905,922.483c1.5-.6,1.244-3.607-.571-6.667q-6.268-10.576-12.546-21.157L1271.242,873.5c-1.813-3.058-4.338-4.743-5.59-3.712-27.419,22.594-31.875,41.078-25.981,51.014S1263.916,935.706,1296.905,922.483Z" transform="translate(-1155.052 -869.482)" fill="#ccc" fill-rule="evenodd"/><path d="M1298.72,927.393l-30.265,17.945a10.035,10.035,0,0,0-3.5,13.709l17.263,29.114a10.035,10.035,0,0,0,13.709,3.5l30.264-17.941c16.1-9.546,68.546-50.92,59.951-66.555C1377.323,891.13,1314.723,917.909,1298.72,927.393Z" transform="translate(-1263.562 -878.054)" fill="#fff" fill-rule="evenodd"/><path d="M1344.676,996.545c-1.528.906-3.82-.081-5.067-2.178l-17.262-29.114c-1.244-2.1-1.013-4.585.519-5.5C1405.663,910.663,1427.475,947.451,1344.676,996.545Z" transform="translate(-1316.189 -887.079)" fill="#ffac9c" fill-rule="evenodd"/><path d="M1292.284,1097.179a7.387,7.387,0,0,0-2.594,10.119l0,0a7.387,7.387,0,0,0,10.12,2.594h0a7.388,7.388,0,0,0,2.593-10.123h0a7.388,7.388,0,0,0-10.122-2.591Z" transform="translate(-1198.434 -928.938)" fill="#ccc" fill-rule="evenodd"/><path d="M1311.493,1055.85h0a4.27,4.27,0,0,0-1.49,5.834l7.569,12.773a4.27,4.27,0,0,0,5.833,1.491h0a4.269,4.269,0,0,0,1.49-5.833l-7.569-12.773A4.269,4.269,0,0,0,1311.493,1055.85Z" transform="translate(-1235.789 -918.213)" fill="#fff" fill-rule="evenodd"/></g></g></g></g></svg>