<svg xmlns="http://www.w3.org/2000/svg" xmlns:xlink="http://www.w3.org/1999/xlink" width="165.289" height="44.933" viewBox="0 0 165.289 44.933"><defs><clipPath id="a"><path d="M253.869,582.925h6.419V615.02h-6.419Zm-12.838,16.047a9.665,9.665,0,0,0,9.629,9.629v6.419a16.086,16.086,0,0,1-16.047-16.047V570.087h6.419v12.838h9.629v6.419h-9.629v9.628Zm-25.675-9.628a9.628,9.628,0,1,0,9.628,9.628,9.664,9.664,0,0,0-9.628-9.628Zm0-6.419a16.047,16.047,0,1,1-16.047,16.047,16,16,0,0,1,16.047-16.047ZM164,598.972a16.047,16.047,0,0,1,32.095,0V615.02h-6.419V598.972a9.628,9.628,0,0,0-19.256,0V615.02H164V598.972Zm-28.335-3.2h18.156a9.623,9.623,0,0,0-18.156,0Zm20.4,14.533a16.023,16.023,0,1,1,4.724-11.336c0,2.032-.918,3.2-3.157,3.2H135.669a9.617,9.617,0,0,0,15.888,3.6l4.513,4.539Zm-39.916-20.964H95v-6.419h29.1c1.985,0,4.733,2.827,1.521,6.036q-9.84,9.832-19.68,19.64h21.154v6.419H98c-1.985,0-4.733-2.827-1.521-6.036q9.836-9.829,19.68-19.639Z" transform="translate(-95 -570.087)" fill="none"/></clipPath><linearGradient id="b" x1="0.892" y1="-0.481" x2="0.116" y2="1.459" gradientUnits="objectBoundingBox"><stop offset="0" stop-color="#33ac6a"/><stop offset="0.59" stop-color="#1ab0aa"/><stop offset="1" stop-color="#00b5ec"/></linearGradient></defs><g transform="translate(-95 -570.087)"><g transform="translate(95 570.087)"><g clip-path="url(#a)"><rect width="167.025" height="44.933" transform="translate(-1.737 0)" fill="url(#b)"/></g></g><path d="M530.734,570.1a3.21,3.21,0,1,1-3.21,3.21,3.21,3.21,0,0,1,3.21-3.21" transform="translate(-273.655 -0.006)" fill="#e43a24" fill-rule="evenodd"/></g></svg>